<?xml version="1.0" encoding="UTF-8"?>
<!DOCTYPE svg PUBLIC "-//W3C//DTD SVG 1.1//EN" "http://www.w3.org/Graphics/SVG/1.1/DTD/svg11.dtd">
<!-- Creator: CorelDRAW X8 -->
<svg xmlns="http://www.w3.org/2000/svg" xml:space="preserve" width="181mm" height="181mm" version="1.1" style="shape-rendering:geometricPrecision; text-rendering:geometricPrecision; image-rendering:optimizeQuality; fill-rule:evenodd; clip-rule:evenodd"
viewBox="0 0 17079 17079"
 xmlns:xlink="http://www.w3.org/1999/xlink">
 <defs>
  <style type="text/css">
   <![CDATA[
    .str0 {stroke:white;stroke-width:94.3568}
    .str1 {stroke:#2B2A29;stroke-width:18.8714}
    .fil0 {fill:none}
    .fil3 {fill:#FEFEFE}
    .fil1 {fill:#5C9BAD}
    .fil2 {fill:#B8926C}
    .fil4 {fill:#2B2A29;fill-opacity:0.200000}
   ]]>
  </style>
 </defs>
 <g id="Ebene_x0020_1">
  <metadata id="CorelCorpID_0Corel-Layer"/>
  <g id="_759243824">
   <circle class="fil0 str0" cx="8539" cy="8539" r="8492"/>
   <g>
    <g>
     <path class="fil0 str1" d="M1103 4434c910,1844 2676,-60 3319,1442 179,417 288,-166 622,1132 200,776 93,2620 516,3213 191,269 111,1547 1554,1253 394,-80 679,-1653 1053,-2069 272,-302 84,-426 883,-816 687,-336 819,-1646 605,-2247 -243,-682 430,-2258 1147,-2379 581,-99 1413,-949 300,-949 -1856,0 -2070,-1658 -882,-1149 168,72 398,1087 1736,738 9,-43 687,-860 -55,-1210 -1082,-511 160,-440 221,-555"/>
     <path class="fil1" d="M8539 17031c4690,0 8492,-3802 8492,-8492 0,-3410 -2009,-6350 -4909,-7701 -61,115 -1303,44 -221,555 742,350 64,1167 55,1210 -1338,349 -1568,-666 -1736,-738 -1188,-509 -974,1149 882,1149 1113,0 281,850 -300,949 -717,121 -1390,1697 -1147,2379 214,601 82,1911 -605,2247 -799,390 -611,514 -883,816 -374,416 -659,1989 -1053,2069 -1443,294 -1363,-984 -1554,-1253 -423,-593 -316,-2437 -516,-3213 -334,-1298 -443,-715 -622,-1132 -643,-1502 -2409,402 -3319,-1442 -673,1217 -1056,2616 -1056,4105 0,4690 3802,8492 8492,8492z"/>
     <path class="fil2" d="M9655 6342c-243,-682 430,-2258 1147,-2379 581,-99 1413,-949 300,-949 -1856,0 -2070,-1658 -882,-1149 168,72 398,1087 1736,738 9,-43 687,-860 -55,-1210 -1082,-511 160,-440 221,-555 -1088,-508 -2302,-791 -3583,-791 -3201,0 -5988,1771 -7436,4387 910,1844 2676,-60 3319,1442 179,417 288,-166 622,1132 200,776 93,2620 516,3213 191,269 111,1547 1554,1253 394,-80 679,-1653 1053,-2069 272,-302 84,-426 883,-816 687,-336 819,-1646 605,-2247z"/>
     <path class="fil3" d="M5691 5898c-1202,1329 1797,1805 1707,133 -26,-485 -930,-766 -1420,-766 -1063,0 427,-600 876,-425 802,311 1274,901 1456,1781 294,1417 -955,2197 -2222,2197 -919,0 -919,10 -1565,-556 -486,-426 -533,-1754 133,-2085 558,-276 299,-279 986,-279l49 0z"/>
     <path class="fil3" d="M14976 12405c680,-371 -132,-1641 533,-2055 610,-380 236,-339 375,-674 231,-561 -584,-1404 -1152,-905 -253,222 -1157,714 -1498,705 -1631,-42 -1018,-1704 -2061,-1392 -779,232 -251,844 -635,1283 -314,358 7,833 41,1008 181,929 1021,1125 170,1830 -30,25 -51,77 -84,100 -295,204 -130,778 111,766 1343,-69 1234,518 1582,535 1166,58 830,-950 1320,-1101 1012,-311 2,608 1298,-100z"/>
     <path class="fil3" d="M14940 6050c-411,-84 234,-653 1026,39 241,211 -107,492 774,458l64 31c-209,-884 -556,-1715 -1018,-2468 -23,8 -123,41 -144,40 -690,-27 -528,503 -1362,-125 -867,-652 -1136,179 -1467,891 -243,1286 -220,1596 1364,1728 14,1 566,783 1057,94 181,-254 -13,-631 -294,-688z"/>
     <path class="fil3" d="M10590 15231c-580,-615 514,-581 718,-766 647,-583 -1594,-111 -2024,-324 -1160,-575 -478,-743 -1315,-1041 -635,-226 -1093,163 -1612,-124 -712,-395 -501,-436 -626,-967 -140,-586 -164,-513 -675,-631 -566,-131 -1390,-802 -1683,-691 -996,378 -680,481 -680,1115 0,1376 304,963 524,1340 504,865 99,1024 -755,1329 497,509 1056,955 1667,1327 251,52 758,107 961,-59 179,-148 780,-195 1134,-345 329,-139 902,212 1129,489 246,301 807,240 1132,67 686,-367 949,64 1215,113 567,104 1351,451 1603,-305 261,-88 -592,-399 -713,-527z"/>
    </g>
    <path class="fil4" d="M8539 17031c4690,0 8492,-3802 8492,-8492 0,-4690 -3802,-8492 -8492,-8492 3506,0 6347,3802 6347,8492 0,4690 -2841,8492 -6347,8492z"/>
   </g>
  </g>
 </g>
</svg>
