<?xml version="1.0" encoding="UTF-8"?>
<!DOCTYPE svg PUBLIC "-//W3C//DTD SVG 1.1//EN" "http://www.w3.org/Graphics/SVG/1.1/DTD/svg11.dtd">
<!-- Creator: CorelDRAW X8 -->
<svg xmlns="http://www.w3.org/2000/svg" xml:space="preserve" width="206.705mm" height="206.705mm" version="1.1" style="shape-rendering:geometricPrecision; text-rendering:geometricPrecision; image-rendering:optimizeQuality; fill-rule:evenodd; clip-rule:evenodd"
viewBox="0 0 20671 20671"
 xmlns:xlink="http://www.w3.org/1999/xlink">
 <defs>
  <style type="text/css">
   <![CDATA[
    .str0 {stroke:white;stroke-width:100}
    .fil8 {fill:none}
    .fil3 {fill:#A38D7A}
    .fil0 {fill:#A6886D}
    .fil2 {fill:#A68B73}
    .fil6 {fill:#AD875F}
    .fil4 {fill:#B38E6E}
    .fil5 {fill:#B89F8A}
    .fil1 {fill:#CECFD4}
    .fil7 {fill:#2B2A29;fill-opacity:0.200000}
   ]]>
  </style>
 </defs>
 <g id="Ebene_x0020_1">
  <metadata id="CorelCorpID_0Corel-Layer"/>
  <g id="_657886312">
   <g>
    <path class="fil0" d="M3449 17979c2501,2247 6052,3224 9542,2289 1675,-449 3143,-1288 4331,-2391 -44,2 -193,67 -227,81 -293,123 -1852,234 -1977,150 -248,-166 -1994,-102 -2403,-102 -1041,0 -2144,91 -3160,-50 -195,-27 -4393,-33 -4465,2 -187,91 -1367,10 -1641,21z"/>
    <path class="fil1" d="M3892 16594c-27,95 79,207 235,250 157,44 305,2 331,-92 27,-95 -79,-207 -235,-250 -157,-44 -305,-2 -331,92z"/>
    <path class="fil1" d="M5961 16361c-35,123 108,272 319,331 211,59 410,6 444,-117 35,-124 -108,-272 -319,-331 -211,-59 -410,-7 -444,117z"/>
    <path class="fil1" d="M8076 16452c40,174 313,260 611,192 297,-69 505,-265 465,-440 -40,-174 -313,-260 -611,-191 -297,68 -505,265 -465,439z"/>
    <path class="fil1" d="M9869 11702c1401,0 1408,488 3197,268 1446,-178 1987,-268 3501,-268 1075,0 1603,-274 2297,-274 206,0 1536,297 1675,155 94,-766 102,-1551 16,-2341 -74,7 -38,2 -94,-19 -346,-131 -1804,-16 -2047,-107 -498,-186 -758,-201 -1288,-201 -425,0 -1725,243 -2037,130 -165,-60 -1081,77 -1165,121 -363,190 -1614,6 -2029,-107 -464,-127 -2404,212 -2906,68 -392,-113 -1172,-231 -1568,-85 -432,160 -860,174 -1334,174 -579,0 -1443,-322 -1868,-184 -1229,397 -1244,-44 -1840,45 -752,112 -1551,238 -2233,-188 -133,935 -138,1899 -2,2869 730,160 2157,322 2897,122 267,-72 6156,-178 6828,-178z"/>
    <path class="fil2" d="M11895 9059c415,113 1666,297 2029,107 84,-44 1000,-181 1165,-121 312,113 1612,-130 2037,-130 530,0 790,15 1288,201 243,91 1701,-24 2047,107 56,21 20,26 94,19 -56,-522 -153,-1046 -293,-1568 -36,-132 -74,-263 -114,-392 -101,-41 -305,-26 -391,9 -358,148 -438,75 -755,148 -220,51 -827,40 -969,-36 -669,-358 -668,-76 -1039,-91 -720,-31 -543,246 -1032,246 -870,0 -1192,-410 -1587,-410 -874,0 -990,-85 -1784,198 -200,71 -471,161 -684,68 -521,-226 -929,514 -1313,356 -561,-232 -1629,-80 -1997,-276 -233,-125 -2434,56 -2794,153 -768,206 -1053,-187 -1226,-201 -727,-58 -323,200 -1174,274 -1209,104 -949,-162 -1261,-192 -711,-67 -922,134 -1670,-127 -144,485 -254,982 -326,1488 682,426 1481,300 2233,188 596,-89 611,352 1840,-45 425,-138 1289,184 1868,184 474,0 902,-14 1334,-174 396,-146 1176,-28 1568,85 502,144 2442,-195 2906,-68z"/>
    <path class="fil1" d="M10594 7770c384,158 792,-582 1313,-356 213,93 484,3 684,-68 794,-283 910,-198 1784,-198 395,0 717,410 1587,410 489,0 312,-277 1032,-246 371,15 370,-267 1039,91 142,76 749,87 969,36 317,-73 397,0 755,-148 86,-35 290,-50 391,-9 -97,-313 -207,-618 -331,-914 -109,39 -745,-21 -1015,46 -716,175 -1927,-188 -2473,-169 -1868,65 -3849,27 -5735,27 -731,0 -1248,110 -1985,110 -571,0 -2241,-218 -2624,-100 -635,195 -1309,210 -1978,72 -247,-51 -2894,-60 -3156,-7 -145,344 -271,696 -379,1054 748,261 959,60 1670,127 312,30 52,296 1261,192 851,-74 447,-332 1174,-274 173,14 458,407 1226,201 360,-97 2561,-278 2794,-153 368,196 1436,44 1997,276z"/>
    <path class="fil3" d="M10594 6272c1886,0 3867,38 5735,-27 546,-19 1757,344 2473,169 270,-67 906,-7 1015,-46 -70,-167 -143,-332 -221,-493 -312,126 -758,98 -1095,67 -737,-68 -1486,-234 -2220,-105 -1072,188 -2143,-2 -3168,127 -509,65 -2034,-218 -2246,-122 -286,129 -2632,120 -3100,70 -748,-79 -992,-77 -1755,-77 -501,0 -1425,140 -1813,75 -593,-100 -1099,-75 -1701,-75 -554,0 -963,86 -1453,80 -68,143 -133,287 -194,432 262,-53 2909,-44 3156,7 669,138 1343,123 1978,-72 383,-118 2053,100 2624,100 737,0 1254,-110 1985,-110z"/>
    <path class="fil1" d="M7767 5912c468,50 2814,59 3100,-70 212,-96 1737,187 2246,122 1025,-129 2096,61 3168,-127 734,-129 1483,37 2220,105 337,31 783,59 1095,-67 -155,-322 -325,-634 -509,-934 -15,2 -131,35 -137,39 -96,68 -1053,122 -1183,68 -245,-101 -1965,-208 -2218,-125 -695,230 -2826,77 -3691,77 -1025,0 -2039,-399 -3003,39 -293,133 -3227,126 -3708,126 -1214,0 -2396,-341 -3582,-208 -190,310 -364,630 -520,958 490,6 899,-80 1453,-80 602,0 1108,-25 1701,75 388,65 1312,-75 1813,-75 763,0 1007,-2 1755,77z"/>
    <path class="fil4" d="M15245 13844c83,554 1432,610 1860,248 182,-154 84,-398 9,-564 -133,-296 -574,-365 -829,-270 -289,107 -259,198 -324,332 19,-26 43,-52 69,-83 151,-181 707,-110 786,-2 279,381 -190,479 -468,549 -73,0 -147,-7 -220,-23 -233,-48 -448,-178 -532,-415 -396,-1114 1828,-1168 2119,-328 325,937 14,1272 -481,1370 288,158 1824,-397 2430,-438 -152,-86 -497,-159 -631,-248 -153,-103 -985,-1067 -1094,-1224 -271,-392 -1152,-618 -1600,-445 -880,340 -739,249 -1076,684l0 20c-72,231 -100,131 -100,425 0,206 61,268 82,412z"/>
    <path class="fil0" d="M13232 13916c779,129 1733,709 2295,685 391,-17 1161,165 1707,57 495,-98 806,-433 481,-1370 -291,-840 -2515,-786 -2119,328 84,237 299,367 532,415 -42,-49 -210,-119 -219,-196 -10,-82 -4,-136 14,-180 10,-24 23,-44 38,-65 65,-134 35,-225 324,-332 255,-95 696,-26 829,270 75,166 173,410 -9,564 -428,362 -1777,306 -1860,-248 -21,-144 -82,-206 -82,-412 0,-294 28,-194 100,-425l0 -20c-73,94 -168,212 -300,365 -684,789 -841,419 -1731,564z"/>
    <path class="fil0" d="M3383 13775c197,25 352,279 1249,279 1204,0 2177,-251 3292,-114 797,98 886,278 1960,278 924,0 1848,87 2689,-260 191,-78 417,-82 659,-42 890,-145 1047,225 1731,-564 132,-153 227,-271 300,-365 337,-435 196,-344 1076,-684 448,-173 1329,53 1600,445 109,157 941,1121 1094,1224 134,89 479,162 631,248 27,-2 52,-3 75,-2 55,1 83,13 120,-18 338,-833 569,-1712 680,-2617 -139,142 -1469,-155 -1675,-155 -694,0 -1222,274 -2297,274 -1514,0 -2055,90 -3501,268 -1789,220 -1796,-268 -3197,-268 -672,0 -6561,106 -6828,178 -740,200 -2167,38 -2897,-122 58,412 142,826 253,1239 76,284 163,562 261,834 1026,-492 1782,-172 2725,-56z"/>
    <ellipse class="fil1" transform="matrix(1.49482 0.41217 -0.41217 1.49482 6356.25 3995.89)" rx="168" ry="132"/>
    <ellipse class="fil1" transform="matrix(1.5231 -0.290736 0.290736 1.5231 9105.03 2977.06)" rx="229" ry="137"/>
    <ellipse class="fil1" transform="matrix(1.47036 0.492367 -0.492367 1.47036 12072.6 3845.46)" rx="194" ry="141"/>
    <path class="fil5" d="M11858 5000c865,0 2996,153 3691,-77 253,-83 1973,24 2218,125 130,54 1087,0 1183,-68 6,-4 122,-37 137,-39 -2322,-3772 -6922,-5743 -11419,-4538 -2647,709 -4775,2389 -6103,4554 1186,-133 2368,208 3582,208 481,0 3415,7 3708,-126 964,-438 1978,-39 3003,-39zm284 -1362c158,53 254,188 216,303 -38,115 -197,165 -355,112 -157,-53 -254,-188 -216,-303 39,-115 198,-165 355,-112zm-5731 160c138,38 226,158 196,267 -30,109 -167,167 -305,129 -139,-39 -226,-158 -196,-267 30,-109 166,-167 305,-129zm2654 -1029c193,-37 367,26 389,141 22,115 -116,238 -309,275 -193,37 -367,-26 -389,-141 -22,-115 116,-238 309,-275z"/>
    <path class="fil0" d="M9555 17956c1016,141 2119,50 3160,50 409,0 2155,-64 2403,102 125,84 1684,-27 1977,-150 34,-14 183,-79 227,-81 897,-833 1635,-1817 2183,-2900 -65,-9 -379,86 -474,110 -1442,375 -2726,-3 -4166,-144 -286,-28 -426,-83 -665,-129 -1270,-246 -1198,-269 -2460,0 -525,111 -1837,218 -2336,47 -300,-103 -1904,-332 -2140,-214 -145,72 -1484,50 -1789,50 -588,0 -1025,-31 -1596,-57 -1046,-47 -1807,-571 -3016,-286 599,1416 1492,2642 2586,3625 274,-11 1454,70 1641,-21 72,-35 4270,-29 4465,-2zm-403 -1752c40,175 -168,371 -465,440 -298,68 -571,-18 -611,-192 -40,-174 168,-371 465,-439 298,-69 571,17 611,191zm-2747 40c211,59 354,207 319,331 -34,123 -233,176 -444,117 -211,-59 -354,-208 -319,-331 34,-124 233,-176 444,-117zm-2182 258c156,43 262,155 235,250 -26,94 -174,136 -331,92 -156,-43 -262,-155 -235,-250 26,-94 174,-136 331,-92z"/>
    <path class="fil1" d="M5475 14697c305,0 1644,22 1789,-50 236,-118 1840,111 2140,214 499,171 1811,64 2336,-47 1262,-269 1190,-246 2460,0 239,46 379,101 665,129 1440,141 2724,519 4166,144 95,-24 409,-119 474,-110 128,-254 246,-513 354,-777 -37,31 -65,19 -120,18 -23,-1 -48,0 -75,2 -606,41 -2142,596 -2430,438 -546,108 -1316,-74 -1707,-57 -562,24 -1516,-556 -2295,-685 -242,-40 -468,-36 -659,42 -841,347 -1765,260 -2689,260 -1074,0 -1163,-180 -1960,-278 -1115,-137 -2088,114 -3292,114 -897,0 -1052,-254 -1249,-279 -943,-116 -1699,-436 -2725,56 64,177 132,352 205,523 1209,-285 1970,239 3016,286 571,26 1008,57 1596,57z"/>
    <path class="fil6" d="M16128 14031c73,16 147,23 220,23 278,-70 747,-168 468,-549 -79,-108 -635,-179 -786,2 -26,31 -50,57 -69,83 -15,21 -28,41 -38,65 -18,44 -24,98 -14,180 9,77 177,147 219,196z"/>
   </g>
   <path class="fil7" d="M10335 20621c5681,0 10286,-4605 10286,-10286 0,-5680 -4605,-10285 -10286,-10285 4246,0 7688,4605 7688,10285 0,5681 -3442,10286 -7688,10286z"/>
   <circle class="fil8 str0" cx="10335" cy="10335" r="10285"/>
  </g>
 </g>
</svg>
