<?xml version="1.0" encoding="UTF-8"?>
<!DOCTYPE svg PUBLIC "-//W3C//DTD SVG 1.1//EN" "http://www.w3.org/Graphics/SVG/1.1/DTD/svg11.dtd">
<!-- Creator: CorelDRAW X8 -->
<svg xmlns="http://www.w3.org/2000/svg" xml:space="preserve" width="200mm" height="200mm" version="1.1" style="shape-rendering:geometricPrecision; text-rendering:geometricPrecision; image-rendering:optimizeQuality; fill-rule:evenodd; clip-rule:evenodd"
viewBox="0 0 19379 19379"
 xmlns:xlink="http://www.w3.org/1999/xlink">
 <defs>
  <style type="text/css">
   <![CDATA[
    .fil0 {fill:#DED8CA}
    .fil2 {fill:#2B2A29;fill-opacity:0.301961}
    .fil3 {fill:#2B2A29;fill-opacity:0.501961}
    .fil1 {fill:#BBBAB4;fill-opacity:0.800000}
   ]]>
  </style>
 </defs>
 <g id="Ebene_x0020_1">
  <metadata id="CorelCorpID_0Corel-Layer"/>
  <g id="_610474184">
   <circle class="fil0" cx="9689" cy="9689" r="9689"/>
   <g>
    <path class="fil1" d="M7790 4054c1379,0 2496,1117 2496,2495 0,1378 -1117,2495 -2496,2495 -1378,0 -2495,-1117 -2495,-2495 0,-1378 1117,-2495 2495,-2495z"/>
    <path class="fil2" d="M10286 6549c0,-1378 -1117,-2495 -2496,-2495 1130,0 2046,1117 2046,2495 0,1378 -916,2495 -2046,2495 1379,0 2496,-1117 2496,-2495z"/>
   </g>
   <g>
    <path class="fil1" d="M13465 1695c660,0 1196,536 1196,1197 0,660 -536,1196 -1196,1196 -661,0 -1197,-536 -1197,-1196 0,-661 536,-1197 1197,-1197z"/>
    <path class="fil2" d="M14661 2892c0,-661 -536,-1197 -1196,-1197 541,0 980,536 980,1197 0,660 -439,1196 -980,1196 660,0 1196,-536 1196,-1196z"/>
   </g>
   <g>
    <path class="fil1" d="M14155 11898c963,0 1743,781 1743,1744 0,963 -780,1743 -1743,1743 -963,0 -1743,-780 -1743,-1743 0,-963 780,-1744 1743,-1744z"/>
    <path class="fil2" d="M15898 13642c0,-963 -780,-1744 -1743,-1744 789,0 1429,781 1429,1744 0,963 -640,1743 -1429,1743 963,0 1743,-780 1743,-1743z"/>
   </g>
   <g>
    <path class="fil1" d="M16678 9826c481,0 871,390 871,872 0,481 -390,871 -871,871 -482,0 -872,-390 -872,-871 0,-482 390,-872 872,-872z"/>
    <path class="fil2" d="M17549 10698c0,-482 -390,-872 -871,-872 394,0 714,390 714,872 0,481 -320,871 -714,871 481,0 871,-390 871,-871z"/>
   </g>
   <g>
    <path class="fil1" d="M4987 12121c548,0 992,444 992,991 0,548 -444,991 -992,991 -547,0 -991,-443 -991,-991 0,-547 444,-991 991,-991z"/>
    <path class="fil2" d="M5979 13112c0,-547 -444,-991 -992,-991 449,0 813,444 813,991 0,548 -364,991 -813,991 548,0 992,-443 992,-991z"/>
   </g>
   <g>
    <path class="fil1" d="M8475 14061c793,0 1436,643 1436,1436 0,793 -643,1435 -1436,1435 -793,0 -1436,-642 -1436,-1435 0,-793 643,-1436 1436,-1436z"/>
    <path class="fil2" d="M9911 15497c0,-793 -643,-1436 -1436,-1436 650,0 1177,643 1177,1436 0,793 -527,1435 -1177,1435 793,0 1436,-642 1436,-1435z"/>
   </g>
   <g>
    <path class="fil1" d="M4987 15090c397,0 718,322 718,718 0,397 -321,718 -718,718 -396,0 -717,-321 -717,-718 0,-396 321,-718 717,-718z"/>
    <path class="fil2" d="M5705 15808c0,-396 -321,-718 -718,-718 325,0 589,322 589,718 0,397 -264,718 -589,718 397,0 718,-321 718,-718z"/>
   </g>
   <path class="fil3" d="M3418 9689c0,4769 3444,8732 7981,9540 4536,-808 7980,-4771 7980,-9540 0,-4768 -3444,-8731 -7980,-9539 -4537,808 -7981,4771 -7981,9539z"/>
  </g>
 </g>
</svg>
