<?xml version="1.0" encoding="UTF-8"?>
<!DOCTYPE svg PUBLIC "-//W3C//DTD SVG 1.1//EN" "http://www.w3.org/Graphics/SVG/1.1/DTD/svg11.dtd">
<!-- Creator: CorelDRAW X8 -->
<svg xmlns="http://www.w3.org/2000/svg" xml:space="preserve" width="200mm" height="200mm" version="1.1" style="shape-rendering:geometricPrecision; text-rendering:geometricPrecision; image-rendering:optimizeQuality; fill-rule:evenodd; clip-rule:evenodd"
viewBox="0 0 19716 19716"
 xmlns:xlink="http://www.w3.org/1999/xlink">
 <defs>
  <style type="text/css">
   <![CDATA[
    .fil0 {fill:#DED8CA}
    .fil2 {fill:#2B2A29;fill-opacity:0.301961}
    .fil1 {fill:#BBBAB4;fill-opacity:0.800000}
   ]]>
  </style>
 </defs>
 <g id="Ebene_x0020_1">
  <metadata id="CorelCorpID_0Corel-Layer"/>
  <g id="_759255776">
   <circle class="fil0" cx="9858" cy="9858" r="9858"/>
   <g>
    <path class="fil1" d="M7926 4124c1402,0 2538,1137 2538,2539 0,1402 -1136,2538 -2538,2538 -1402,0 -2539,-1136 -2539,-2538 0,-1402 1137,-2539 2539,-2539z"/>
    <path class="fil2" d="M10464 6663c0,-1402 -1136,-2539 -2538,-2539 1149,0 2081,1137 2081,2539 0,1402 -932,2538 -2081,2538 1402,0 2538,-1136 2538,-2538z"/>
   </g>
   <g>
    <path class="fil1" d="M13699 1725c672,0 1217,545 1217,1217 0,672 -545,1217 -1217,1217 -673,0 -1218,-545 -1218,-1217 0,-672 545,-1217 1218,-1217z"/>
    <path class="fil2" d="M14916 2942c0,-672 -545,-1217 -1217,-1217 551,0 997,545 997,1217 0,672 -446,1217 -997,1217 672,0 1217,-545 1217,-1217z"/>
   </g>
   <g>
    <path class="fil1" d="M14401 12105c979,0 1773,794 1773,1774 0,979 -794,1773 -1773,1773 -980,0 -1774,-794 -1774,-1773 0,-980 794,-1774 1774,-1774z"/>
    <path class="fil2" d="M16174 13879c0,-980 -794,-1774 -1773,-1774 803,0 1454,794 1454,1774 0,979 -651,1773 -1454,1773 979,0 1773,-794 1773,-1773z"/>
   </g>
   <g>
    <path class="fil1" d="M16968 9997c489,0 886,397 886,887 0,489 -397,886 -886,886 -490,0 -887,-397 -887,-886 0,-490 397,-887 887,-887z"/>
    <path class="fil2" d="M17854 10884c0,-490 -397,-887 -886,-887 401,0 726,397 726,887 0,489 -325,886 -726,886 489,0 886,-397 886,-886z"/>
   </g>
   <g>
    <path class="fil1" d="M5074 12331c557,0 1009,452 1009,1009 0,557 -452,1008 -1009,1008 -557,0 -1008,-451 -1008,-1008 0,-557 451,-1009 1008,-1009z"/>
    <path class="fil2" d="M6083 13340c0,-557 -452,-1009 -1009,-1009 457,0 827,452 827,1009 0,557 -370,1008 -827,1008 557,0 1009,-451 1009,-1008z"/>
   </g>
   <g>
    <path class="fil1" d="M8622 14305c807,0 1461,654 1461,1461 0,807 -654,1461 -1461,1461 -806,0 -1460,-654 -1460,-1461 0,-807 654,-1461 1460,-1461z"/>
    <path class="fil2" d="M10083 15766c0,-807 -654,-1461 -1461,-1461 662,0 1198,654 1198,1461 0,807 -536,1461 -1198,1461 807,0 1461,-654 1461,-1461z"/>
   </g>
   <g>
    <path class="fil1" d="M5074 15352c403,0 730,327 730,731 0,403 -327,730 -730,730 -403,0 -730,-327 -730,-730 0,-404 327,-731 730,-731z"/>
    <path class="fil2" d="M5804 16083c0,-404 -327,-731 -730,-731 331,0 599,327 599,731 0,403 -268,730 -599,730 403,0 730,-327 730,-730z"/>
   </g>
  </g>
 </g>
</svg>
