<?xml version="1.0" encoding="UTF-8"?>
<!DOCTYPE svg PUBLIC "-//W3C//DTD SVG 1.1//EN" "http://www.w3.org/Graphics/SVG/1.1/DTD/svg11.dtd">
<!-- Creator: CorelDRAW X8 -->
<svg xmlns="http://www.w3.org/2000/svg" xml:space="preserve" width="200mm" height="200mm" version="1.1" style="shape-rendering:geometricPrecision; text-rendering:geometricPrecision; image-rendering:optimizeQuality; fill-rule:evenodd; clip-rule:evenodd"
viewBox="0 0 20155 20155"
 xmlns:xlink="http://www.w3.org/1999/xlink">
 <defs>
  <style type="text/css">
   <![CDATA[
    .fil0 {fill:#DED8CA}
    .fil2 {fill:#2B2A29;fill-opacity:0.301961}
    .fil3 {fill:#2B2A29;fill-opacity:0.501961}
    .fil1 {fill:#BBBAB4;fill-opacity:0.800000}
   ]]>
  </style>
 </defs>
 <g id="Ebene_x0020_1">
  <metadata id="CorelCorpID_0Corel-Layer"/>
  <g id="_611182984">
   <circle class="fil0" cx="10077" cy="10077" r="10077"/>
   <g>
    <path class="fil1" d="M8102 4216c1433,0 2595,1162 2595,2595 0,1433 -1162,2595 -2595,2595 -1433,0 -2595,-1162 -2595,-2595 0,-1433 1162,-2595 2595,-2595z"/>
    <path class="fil2" d="M10697 6811c0,-1433 -1162,-2595 -2595,-2595 1175,0 2128,1162 2128,2595 0,1433 -953,2595 -2128,2595 1433,0 2595,-1162 2595,-2595z"/>
   </g>
   <g>
    <path class="fil1" d="M14004 1763c687,0 1244,557 1244,1244 0,687 -557,1245 -1244,1245 -688,0 -1245,-558 -1245,-1245 0,-687 557,-1244 1245,-1244z"/>
    <path class="fil2" d="M15248 3007c0,-687 -557,-1244 -1244,-1244 563,0 1020,557 1020,1244 0,687 -457,1245 -1020,1245 687,0 1244,-558 1244,-1245z"/>
   </g>
   <g>
    <path class="fil1" d="M14721 12375c1002,0 1813,811 1813,1813 0,1001 -811,1813 -1813,1813 -1001,0 -1813,-812 -1813,-1813 0,-1002 812,-1813 1813,-1813z"/>
    <path class="fil2" d="M16534 14188c0,-1002 -811,-1813 -1813,-1813 821,0 1487,811 1487,1813 0,1001 -666,1813 -1487,1813 1002,0 1813,-812 1813,-1813z"/>
   </g>
   <g>
    <path class="fil1" d="M17345 10219c501,0 907,406 907,907 0,501 -406,907 -907,907 -500,0 -906,-406 -906,-907 0,-501 406,-907 906,-907z"/>
    <path class="fil2" d="M18252 11126c0,-501 -406,-907 -907,-907 411,0 743,406 743,907 0,501 -332,907 -743,907 501,0 907,-406 907,-907z"/>
   </g>
   <g>
    <path class="fil1" d="M5187 12606c569,0 1031,461 1031,1031 0,569 -462,1031 -1031,1031 -569,0 -1031,-462 -1031,-1031 0,-570 462,-1031 1031,-1031z"/>
    <path class="fil2" d="M6218 13637c0,-570 -462,-1031 -1031,-1031 467,0 845,461 845,1031 0,569 -378,1031 -845,1031 569,0 1031,-462 1031,-1031z"/>
   </g>
   <g>
    <path class="fil1" d="M8814 14624c825,0 1493,668 1493,1493 0,825 -668,1493 -1493,1493 -824,0 -1493,-668 -1493,-1493 0,-825 669,-1493 1493,-1493z"/>
    <path class="fil2" d="M10307 16117c0,-825 -668,-1493 -1493,-1493 676,0 1224,668 1224,1493 0,825 -548,1493 -1224,1493 825,0 1493,-668 1493,-1493z"/>
   </g>
   <g>
    <path class="fil1" d="M5187 15694c412,0 747,334 747,747 0,412 -335,746 -747,746 -412,0 -746,-334 -746,-746 0,-413 334,-747 746,-747z"/>
    <path class="fil2" d="M5934 16441c0,-413 -335,-747 -747,-747 338,0 612,334 612,747 0,412 -274,746 -612,746 412,0 747,-334 747,-746z"/>
   </g>
   <path class="fil3" d="M10077 0l0 20155c5566,0 10078,-4512 10078,-10078 0,-5565 -4512,-10077 -10078,-10077z"/>
  </g>
 </g>
</svg>
