<?xml version="1.0" encoding="UTF-8"?>
<!DOCTYPE svg PUBLIC "-//W3C//DTD SVG 1.1//EN" "http://www.w3.org/Graphics/SVG/1.1/DTD/svg11.dtd">
<!-- Creator: CorelDRAW X8 -->
<svg xmlns="http://www.w3.org/2000/svg" xml:space="preserve" width="200mm" height="200mm" version="1.1" style="shape-rendering:geometricPrecision; text-rendering:geometricPrecision; image-rendering:optimizeQuality; fill-rule:evenodd; clip-rule:evenodd"
viewBox="0 0 20000 20000"
 xmlns:xlink="http://www.w3.org/1999/xlink">
 <defs>
  <style type="text/css">
   <![CDATA[
    .fil0 {fill:#DED8CA}
    .fil2 {fill:#2B2A29;fill-opacity:0.301961}
    .fil3 {fill:#2B2A29;fill-opacity:0.501961}
    .fil1 {fill:#BBBAB4;fill-opacity:0.800000}
   ]]>
  </style>
 </defs>
 <g id="Ebene_x0020_1">
  <metadata id="CorelCorpID_0Corel-Layer"/>
  <circle class="fil0" cx="10000" cy="10000" r="10000"/>
  <g id="_754047456">
   <path class="fil1" d="M8040 4184c1422,0 2575,1153 2575,2575 0,1422 -1153,2575 -2575,2575 -1422,0 -2575,-1153 -2575,-2575 0,-1422 1153,-2575 2575,-2575z"/>
   <path class="fil2" d="M10615 6759c0,-1422 -1153,-2575 -2575,-2575 1166,0 2111,1153 2111,2575 0,1422 -945,2575 -2111,2575 1422,0 2575,-1153 2575,-2575z"/>
  </g>
  <g id="_754049472">
   <path class="fil1" d="M13896 1750c682,0 1235,552 1235,1234 0,682 -553,1235 -1235,1235 -682,0 -1235,-553 -1235,-1235 0,-682 553,-1234 1235,-1234z"/>
   <path class="fil2" d="M15131 2984c0,-682 -553,-1234 -1235,-1234 559,0 1012,552 1012,1234 0,682 -453,1235 -1012,1235 682,0 1235,-553 1235,-1235z"/>
  </g>
  <g id="_754049208">
   <path class="fil1" d="M14608 12280c994,0 1800,805 1800,1799 0,994 -806,1799 -1800,1799 -993,0 -1799,-805 -1799,-1799 0,-994 806,-1799 1799,-1799z"/>
   <path class="fil2" d="M16408 14079c0,-994 -806,-1799 -1800,-1799 815,0 1475,805 1475,1799 0,994 -660,1799 -1475,1799 994,0 1800,-805 1800,-1799z"/>
  </g>
  <g id="_754050648">
   <path class="fil1" d="M17212 10141c497,0 900,403 900,900 0,497 -403,899 -900,899 -497,0 -899,-402 -899,-899 0,-497 402,-900 899,-900z"/>
   <path class="fil2" d="M18112 11041c0,-497 -403,-900 -900,-900 408,0 738,403 738,900 0,497 -330,899 -738,899 497,0 900,-402 900,-899z"/>
  </g>
  <g id="_754050312">
   <path class="fil1" d="M5147 12509c565,0 1023,458 1023,1023 0,565 -458,1023 -1023,1023 -565,0 -1023,-458 -1023,-1023 0,-565 458,-1023 1023,-1023z"/>
   <path class="fil2" d="M6170 13532c0,-565 -458,-1023 -1023,-1023 463,0 839,458 839,1023 0,565 -376,1023 -839,1023 565,0 1023,-458 1023,-1023z"/>
  </g>
  <g id="_754052016">
   <path class="fil1" d="M8747 14512c818,0 1481,663 1481,1481 0,819 -663,1482 -1481,1482 -819,0 -1482,-663 -1482,-1482 0,-818 663,-1481 1482,-1481z"/>
   <path class="fil2" d="M10228 15993c0,-818 -663,-1481 -1481,-1481 670,0 1214,663 1214,1481 0,819 -544,1482 -1214,1482 818,0 1481,-663 1481,-1482z"/>
  </g>
  <g id="_754059024">
   <path class="fil1" d="M5147 15574c409,0 741,332 741,741 0,409 -332,741 -741,741 -409,0 -741,-332 -741,-741 0,-409 332,-741 741,-741z"/>
   <path class="fil2" d="M5888 16315c0,-409 -332,-741 -741,-741 336,0 608,332 608,741 0,409 -272,741 -608,741 409,0 741,-332 741,-741z"/>
  </g>
  <path class="fil3" d="M20000 10000c0,-5523 -4477,-10000 -10000,-10000 -5523,0 -10000,4477 -10000,10000 0,5523 4477,10000 10000,10000 5523,0 10000,-4477 10000,-10000z"/>
 </g>
</svg>
