<?xml version="1.0" encoding="UTF-8"?>
<!DOCTYPE svg PUBLIC "-//W3C//DTD SVG 1.1//EN" "http://www.w3.org/Graphics/SVG/1.1/DTD/svg11.dtd">
<!-- Creator: CorelDRAW X8 -->
<svg xmlns="http://www.w3.org/2000/svg" xml:space="preserve" width="210mm" height="210mm" version="1.1" style="shape-rendering:geometricPrecision; text-rendering:geometricPrecision; image-rendering:optimizeQuality; fill-rule:evenodd; clip-rule:evenodd"
viewBox="0 0 21000 21000"
 xmlns:xlink="http://www.w3.org/1999/xlink">
 <defs>
  <style type="text/css">
   <![CDATA[
    .fil0 {fill:#ABD3E4}
    .fil4 {fill:#A38D7A}
    .fil1 {fill:#A6886D}
    .fil3 {fill:#A68B73}
    .fil7 {fill:#AD875F}
    .fil5 {fill:#B38E6E}
    .fil6 {fill:#B89F8A}
    .fil2 {fill:#CECFD4}
    .fil8 {fill:#C5C6C6;fill-opacity:0.200000}
    .fil9 {fill:#2B2A29;fill-opacity:0.200000}
   ]]>
  </style>
   <mask id="id0">
  <radialGradient id="id1" gradientUnits="userSpaceOnUse" cx="-0" cy="0" r="0" fx="-0" fy="0">
   <stop offset="0" style="stop-opacity:1; stop-color:white"/>
   <stop offset="0.94902" style="stop-opacity:-127.502; stop-color:white"/>
   <stop offset="1" style="stop-opacity:0; stop-color:white"/>
  </radialGradient>
    <rect style="fill:url(#id1)" width="21000" height="21000"/>
   </mask>
 </defs>
 <g id="Ebene_x0020_1">
  <metadata id="CorelCorpID_0Corel-Layer"/>
  <path class="fil0" style="mask:url(#id0)" d="M10500 0c5799,0 10500,4701 10500,10500 0,5799 -4701,10500 -10500,10500 -5799,0 -10500,-4701 -10500,-10500 0,-5799 4701,-10500 10500,-10500z"/>
  <g id="_612111640">
   <g>
    <path class="fil1" d="M4305 17275c2252,2023 5450,2903 8592,2061 1509,-404 2830,-1159 3901,-2154 -41,2 -175,61 -206,74 -263,111 -1667,210 -1779,135 -224,-149 -1796,-92 -2165,-92 -937,0 -1930,82 -2845,-45 -175,-25 -3956,-30 -4021,2 -168,82 -1231,9 -1477,19z"/>
    <path class="fil2" d="M4703 16027c-24,85 71,186 212,225 141,40 274,2 298,-83 24,-85 -71,-186 -212,-225 -141,-39 -274,-2 -298,83z"/>
    <path class="fil2" d="M6566 15817c-31,111 98,245 288,298 189,53 369,6 400,-105 31,-112 -98,-245 -288,-298 -190,-53 -369,-6 -400,105z"/>
    <path class="fil2" d="M8471 15899c36,157 282,234 550,173 267,-62 455,-239 419,-396 -36,-157 -282,-234 -550,-172 -267,61 -455,238 -419,395z"/>
    <path class="fil2" d="M10086 11620c1261,0 1267,440 2878,242 1303,-160 1790,-242 3153,-242 968,0 1444,-246 2069,-246 186,0 1383,267 1508,139 84,-690 91,-1397 15,-2108 -67,6 -35,2 -85,-17 -312,-118 -1625,-15 -1843,-97 -449,-167 -683,-181 -1160,-181 -383,0 -1554,219 -1835,117 -148,-54 -973,69 -1049,109 -327,172 -1453,6 -1827,-96 -418,-115 -2164,191 -2617,61 -353,-102 -1055,-208 -1412,-76 -389,144 -774,156 -1201,156 -522,0 -1299,-290 -1682,-166 -1107,358 -1121,-39 -1657,41 -677,101 -1397,214 -2011,-170 -120,843 -125,1711 -2,2585 657,144 1943,290 2609,110 240,-65 5544,-161 6149,-161z"/>
    <path class="fil3" d="M11910 9240c374,102 1500,268 1827,96 76,-40 901,-163 1049,-109 281,102 1452,-117 1835,-117 477,0 711,14 1160,181 218,82 1531,-21 1843,97 50,19 18,23 85,17 -51,-470 -139,-942 -265,-1413 -32,-119 -66,-237 -102,-353 -91,-37 -275,-23 -353,9 -322,132 -394,67 -679,133 -199,45 -745,35 -872,-33 -603,-322 -602,-68 -936,-82 -649,-28 -489,222 -930,222 -783,0 -1073,-370 -1428,-370 -788,0 -893,-76 -1608,179 -179,64 -423,145 -615,61 -469,-203 -837,463 -1183,320 -505,-208 -1466,-71 -1798,-248 -210,-113 -2192,51 -2516,138 -691,186 -948,-169 -1104,-181 -654,-52 -291,180 -1057,246 -1089,95 -855,-146 -1135,-172 -641,-61 -831,120 -1504,-114 -130,436 -229,884 -294,1339 614,384 1334,271 2011,170 536,-80 550,317 1657,-41 383,-124 1160,166 1682,166 427,0 812,-12 1201,-156 357,-132 1059,-26 1412,76 453,130 2199,-176 2617,-61z"/>
    <path class="fil2" d="M10738 8078c346,143 714,-523 1183,-320 192,84 436,3 615,-61 715,-255 820,-179 1608,-179 355,0 645,370 1428,370 441,0 281,-250 930,-222 334,14 333,-240 936,82 127,68 673,78 872,33 285,-66 357,-1 679,-133 78,-32 262,-46 353,-9 -87,-282 -187,-556 -298,-823 -98,35 -671,-19 -915,41 -644,158 -1734,-169 -2226,-152 -1682,59 -3467,25 -5165,25 -658,0 -1124,98 -1787,98 -514,0 -2019,-196 -2363,-90 -572,176 -1178,190 -1781,66 -223,-46 -2606,-55 -2842,-7 -131,310 -245,627 -341,950 673,234 863,53 1504,114 280,26 46,267 1135,172 766,-66 403,-298 1057,-246 156,12 413,367 1104,181 324,-87 2306,-251 2516,-138 332,177 1293,40 1798,248z"/>
    <path class="fil4" d="M10738 6730c1698,0 3483,34 5165,-25 492,-17 1582,310 2226,152 244,-60 817,-6 915,-41 -63,-151 -129,-299 -199,-445 -281,114 -682,89 -986,61 -664,-61 -1338,-211 -2000,-94 -965,169 -1930,-2 -2852,114 -459,58 -1832,-196 -2022,-110 -258,116 -2371,108 -2793,63 -673,-71 -893,-70 -1579,-70 -452,0 -1284,127 -1634,68 -533,-89 -989,-68 -1531,-68 -499,0 -867,78 -1309,73 -61,128 -119,258 -174,389 236,-48 2619,-39 2842,7 603,124 1209,110 1781,-66 344,-106 1849,90 2363,90 663,0 1129,-98 1787,-98z"/>
    <path class="fil2" d="M8192 6405c422,45 2535,53 2793,-63 190,-86 1563,168 2022,110 922,-116 1887,55 2852,-114 662,-117 1336,33 2000,94 304,28 705,53 986,-61 -139,-290 -293,-570 -459,-840 -13,1 -118,31 -123,35 -86,61 -948,109 -1065,61 -221,-91 -1770,-188 -1998,-113 -626,207 -2545,70 -3323,70 -923,0 -1837,-360 -2704,34 -265,121 -2906,114 -3340,114 -1092,0 -2157,-307 -3225,-187 -171,279 -328,567 -469,863 442,5 810,-73 1309,-73 542,0 998,-21 1531,68 350,59 1182,-68 1634,-68 686,0 906,-1 1579,70z"/>
    <path class="fil5" d="M14927 13550c74,499 1289,550 1675,223 164,-138 75,-358 8,-508 -120,-266 -517,-328 -747,-243 -260,96 -233,179 -291,299 17,-23 38,-47 61,-75 136,-163 637,-99 709,-1 251,343 -171,431 -422,494 -66,0 -133,-7 -198,-20 -210,-44 -403,-160 -479,-374 -357,-1003 1646,-1053 1908,-296 292,844 13,1146 -433,1234 259,142 1642,-357 2188,-394 -137,-78 -448,-143 -568,-224 -138,-92 -887,-961 -985,-1102 -244,-354 -1037,-557 -1441,-401 -792,306 -666,224 -969,616l0 18c-65,208 -90,118 -90,383 0,186 55,241 74,371z"/>
    <path class="fil1" d="M13114 13615c701,116 1561,638 2067,617 352,-15 1045,148 1537,51 446,-88 725,-390 433,-1234 -262,-757 -2265,-707 -1908,296 76,214 269,330 479,374 -38,-44 -189,-108 -197,-177 -9,-74 -4,-123 12,-163 9,-21 21,-39 35,-58 58,-120 31,-203 291,-299 230,-85 627,-23 747,243 67,150 156,370 -8,508 -386,327 -1601,276 -1675,-223 -19,-130 -74,-185 -74,-371 0,-265 25,-175 90,-383l0 -18c-65,85 -151,191 -270,329 -616,711 -758,378 -1559,508z"/>
    <path class="fil1" d="M4245 13488c177,22 317,251 1125,251 1084,0 1960,-226 2964,-103 718,88 798,251 1765,251 832,0 1665,78 2422,-234 172,-71 375,-74 593,-38 801,-130 943,203 1559,-508 119,-138 205,-244 270,-329 303,-392 177,-310 969,-616 404,-156 1197,47 1441,401 98,141 847,1010 985,1102 120,81 431,146 568,224 24,-2 47,-3 68,-2 49,0 75,11 107,-17 305,-749 513,-1542 613,-2357 -125,128 -1322,-139 -1508,-139 -625,0 -1101,246 -2069,246 -1363,0 -1850,82 -3153,242 -1611,198 -1617,-242 -2878,-242 -605,0 -5909,96 -6149,161 -666,180 -1952,34 -2609,-110 53,372 128,744 228,1116 68,256 147,507 235,752 924,-444 1605,-155 2454,-51z"/>
    <ellipse class="fil2" transform="matrix(1.3461 0.371273 -0.371163 1.3465 6922.33 4679.11)" rx="168" ry="132"/>
    <ellipse class="fil2" transform="matrix(1.37157 -0.261887 0.26181 1.37197 9397.63 3761.38)" rx="229" ry="137"/>
    <ellipse class="fil2" transform="matrix(1.32407 0.443511 -0.443381 1.32446 12070 4543.61)" rx="194" ry="141"/>
    <path class="fil6" d="M11877 5584c778,0 2697,137 3323,-70 228,-75 1777,22 1998,113 117,48 979,0 1065,-61 5,-4 110,-34 123,-35 -2090,-3398 -6233,-5174 -10283,-4088 -2383,639 -4299,2152 -5495,4102 1068,-120 2133,187 3225,187 434,0 3075,7 3340,-114 867,-394 1781,-34 2704,-34zm256 -1227c141,47 228,169 194,273 -35,103 -178,148 -320,101 -141,-48 -228,-170 -194,-273 35,-104 178,-149 320,-101zm-5162 144c125,34 204,142 177,240 -27,99 -150,151 -275,116 -124,-34 -203,-142 -176,-240 27,-98 150,-150 274,-116zm2391 -927c174,-33 330,24 350,127 20,104 -105,215 -279,248 -173,33 -330,-24 -350,-128 -20,-103 105,-214 279,-247z"/>
    <path class="fil1" d="M9803 17254c915,127 1908,45 2845,45 369,0 1941,-57 2165,92 112,75 1516,-24 1779,-135 31,-13 165,-72 206,-74 807,-750 1471,-1636 1965,-2611 -59,-9 -342,77 -427,99 -1299,337 -2455,-3 -3752,-130 -257,-25 -383,-75 -599,-117 -1143,-221 -1078,-242 -2215,0 -472,101 -1653,197 -2103,43 -271,-92 -1715,-299 -1928,-193 -130,65 -1336,46 -1610,46 -530,0 -924,-29 -1437,-52 -942,-42 -1628,-515 -2716,-257 539,1275 1343,2379 2329,3265 246,-10 1309,63 1477,-19 65,-32 3846,-27 4021,-2zm-363 -1578c36,157 -152,334 -419,396 -268,61 -514,-16 -550,-173 -36,-157 152,-334 419,-395 268,-62 514,15 550,172zm-2474 36c190,53 319,186 288,298 -31,111 -211,158 -400,105 -190,-53 -319,-187 -288,-298 31,-111 210,-158 400,-105zm-1965 232c141,39 236,140 212,225 -24,85 -157,123 -298,83 -141,-39 -236,-140 -212,-225 24,-85 157,-122 298,-83z"/>
    <path class="fil2" d="M6129 14319c274,0 1480,19 1610,-46 213,-106 1657,101 1928,193 450,154 1631,58 2103,-43 1137,-242 1072,-221 2215,0 216,42 342,92 599,117 1297,127 2453,467 3752,130 85,-22 368,-108 427,-99 115,-229 222,-463 318,-701 -32,28 -58,17 -107,17 -21,-1 -44,0 -68,2 -546,37 -1929,536 -2188,394 -492,97 -1185,-66 -1537,-51 -506,21 -1366,-501 -2067,-617 -218,-36 -421,-33 -593,38 -757,312 -1590,234 -2422,234 -967,0 -1047,-163 -1765,-251 -1004,-123 -1880,103 -2964,103 -808,0 -948,-229 -1125,-251 -849,-104 -1530,-393 -2454,51 58,159 119,316 185,471 1088,-258 1774,215 2716,257 513,23 907,52 1437,52z"/>
    <path class="fil7" d="M15722 13719c65,13 132,20 198,20 251,-63 673,-151 422,-494 -72,-98 -573,-162 -709,1 -23,28 -44,52 -61,75 -14,19 -26,37 -35,58 -16,40 -21,89 -12,163 8,69 159,133 197,177z"/>
   </g>
   <path class="fil8" d="M10505 19654c-4361,0 -7897,-4148 -7897,-9265 0,-5116 3536,-9264 7897,-9264 -5116,0 -9264,4148 -9264,9264 0,5117 4148,9265 9264,9265z"/>
   <path class="fil9" d="M10505 19654c5116,0 9262,-4148 9262,-9265 0,-5116 -4146,-9264 -9262,-9264 3824,0 6923,4148 6923,9264 0,5117 -3099,9265 -6923,9265z"/>
  </g>
 </g>
</svg>
