<?xml version="1.0" encoding="UTF-8"?>
<!DOCTYPE svg PUBLIC "-//W3C//DTD SVG 1.1//EN" "http://www.w3.org/Graphics/SVG/1.1/DTD/svg11.dtd">
<!-- Creator: CorelDRAW X8 -->
<svg xmlns="http://www.w3.org/2000/svg" xml:space="preserve" width="161mm" height="161mm" version="1.1" style="shape-rendering:geometricPrecision; text-rendering:geometricPrecision; image-rendering:optimizeQuality; fill-rule:evenodd; clip-rule:evenodd"
viewBox="0 0 12285 12285"
 xmlns:xlink="http://www.w3.org/1999/xlink">
 <defs>
  <style type="text/css">
   <![CDATA[
    .str0 {stroke:white;stroke-width:76.3033}
    .fil0 {fill:none}
    .fil6 {fill:#63412D}
    .fil5 {fill:#855535}
    .fil4 {fill:#B57F53}
    .fil2 {fill:#C78E68}
    .fil1 {fill:#D19F75}
    .fil3 {fill:#E6BB9F}
    .fil7 {fill:#2B2A29;fill-opacity:0.200000}
   ]]>
  </style>
 </defs>
 <g id="Ebene_x0020_1">
  <metadata id="CorelCorpID_0Corel-Layer"/>
  <g id="_663171368">
   <circle class="fil0 str0" cx="6142" cy="6142" r="6104"/>
   <g>
    <g>
     <path class="fil1" d="M7928 5322c114,19 646,112 723,103 63,-7 179,-82 241,-115 36,-19 263,-136 272,-157 19,-44 44,-134 60,-183 8,-26 52,-146 41,-170 -26,-54 -422,-311 -429,-364 -8,-72 82,-309 59,-348 -20,-35 -294,-158 -363,-229 -122,-125 -232,-278 -352,-404 -63,-66 -113,-94 -176,-149 -48,-43 -41,-57 12,-89 84,-50 260,-141 357,-136 150,6 367,68 519,101 29,6 210,39 232,33 207,-50 137,-384 -42,-423 -30,-7 -118,-47 -152,-57 -295,-90 -587,-183 -876,-287l-14 -5c-56,-21 -219,-74 -249,-125 -33,-56 -170,-220 -222,-253l-6 -3c-20,-9 -298,-5 -344,-5 -101,1 -101,17 -183,73 -36,25 -224,163 -252,165 -54,2 -122,-191 -143,-239 -80,-183 -157,-372 -92,-570 16,-49 57,-186 104,-208 64,-29 417,-58 525,-89 77,-28 52,-76 30,-144 -18,-57 -87,-233 -12,-270l12 -5c39,-9 103,7 142,14 284,46 571,72 850,140 106,25 214,48 319,74 85,21 127,49 205,89 47,24 324,160 347,186 63,72 137,177 195,255 117,156 229,301 337,464 50,73 324,450 377,472 128,53 287,-42 382,139 43,81 77,171 115,255 53,117 107,233 166,348 62,119 124,143 226,220 281,208 192,158 539,184 80,6 85,9 153,49 72,43 144,87 216,130 -876,-2093 -2883,-3595 -5258,-3739 -359,101 -687,199 -1058,258 -88,14 -216,27 -281,93 -60,60 -273,342 -321,360 -27,9 -254,15 -300,17 -157,7 -327,10 -483,23 -86,8 -69,45 -54,120 17,88 46,167 -24,232 -47,43 -136,102 -192,144 -140,103 -259,146 -416,215 -78,35 -157,70 -235,106 -117,54 -220,141 -325,218 -36,26 -259,181 -272,207 -69,138 -132,296 -195,439 -62,140 -118,258 -160,407 -45,157 -72,284 -154,428 -56,99 -233,383 -247,479 -13,90 -12,196 -22,293 -13,115 -32,306 -86,407 -41,75 -199,293 -212,342 -12,43 14,327 28,374 22,75 136,155 215,127 84,-30 257,-211 319,-194 83,23 111,279 177,281 36,1 277,-144 321,-174 81,-56 106,-161 140,-251 21,-56 81,-225 130,-253 46,-26 230,-32 297,-39 167,-15 337,-32 505,-51 130,-15 240,-81 358,-134 248,-110 407,-181 629,-344 82,-62 465,-377 532,-380 86,-3 121,168 147,235 67,175 136,183 308,227 167,42 154,3 300,-43 91,-28 124,-11 157,81 61,201 -61,218 -227,271 -220,71 -283,106 -463,253 -35,29 -69,58 -103,87 -56,46 -7,31 43,24 138,-17 634,-92 729,-6 52,47 132,226 191,218 95,-24 199,-260 220,-352 18,-76 38,-199 87,-259 52,-33 179,-5 243,0 314,29 278,51 380,343 36,102 36,93 132,142 100,52 199,102 299,154 105,55 235,127 352,147z"/>
     <path class="fil2" d="M8359 6623c132,82 239,174 389,221 227,69 453,118 682,192 259,84 520,175 779,255 47,15 45,7 95,-13 148,-60 308,-121 452,-186 35,-16 215,-113 217,-136 4,-58 -73,-246 -56,-298 14,-46 121,-175 156,-248 18,-39 63,-175 92,-190 39,-19 280,-24 337,-25 58,-1 101,27 154,53 114,54 181,89 303,125 93,28 187,52 280,79 5,-103 8,-206 8,-310 0,-834 -168,-1629 -470,-2353 -72,-43 -144,-87 -216,-130 -68,-40 -73,-43 -153,-49 -347,-26 -258,24 -539,-184 -102,-77 -164,-101 -226,-220 -59,-115 -113,-231 -166,-348 -38,-84 -72,-174 -115,-255 -95,-181 -254,-86 -382,-139 -53,-22 -327,-399 -377,-472 -108,-163 -220,-308 -337,-464 -58,-78 -132,-183 -195,-255 -23,-26 -300,-162 -347,-186 -78,-40 -120,-68 -205,-89 -105,-26 -213,-49 -319,-74 -279,-68 -566,-94 -850,-140 -39,-7 -103,-23 -142,-14l-12 5c-75,37 -6,213 12,270 22,68 47,116 -30,144 -108,31 -461,60 -525,89 -47,22 -88,159 -104,208 -65,198 12,387 92,570 21,48 89,241 143,239 28,-2 216,-140 252,-165 82,-56 82,-72 183,-73 46,0 324,-4 344,5l6 3c52,33 189,197 222,253 30,51 193,104 249,125l14 5c289,104 581,197 876,287 34,10 122,50 152,57 179,39 249,373 42,423 -22,6 -203,-27 -232,-33 -152,-33 -369,-95 -519,-101 -97,-5 -273,86 -357,136 -53,32 -60,46 -12,89 63,55 113,83 176,149 120,126 230,279 352,404 69,71 343,194 363,229 23,39 -67,276 -59,348 7,53 403,310 429,364 11,24 -33,144 -41,170 -16,49 -41,139 -60,183 -9,21 -236,138 -272,157 -62,33 -178,108 -241,115 -77,9 -609,-84 -723,-103 -117,-20 -247,-92 -352,-147 -100,-52 -199,-102 -299,-154 -96,-49 -96,-40 -132,-142 -102,-292 -66,-314 -380,-343 -64,-5 -191,-33 -243,0 -49,60 -69,183 -87,259 -21,92 -125,328 -220,352 -59,8 -139,-171 -191,-218 -95,-86 -591,-11 -729,6 -50,7 -99,22 -43,-24 34,-29 68,-58 103,-87 180,-147 243,-182 463,-253 166,-53 288,-70 227,-271 -33,-92 -66,-109 -157,-81 -146,46 -133,85 -300,43 -172,-44 -241,-52 -308,-227 -26,-67 -61,-238 -147,-235 -67,3 -450,318 -532,380 -222,163 -381,234 -629,344 -118,53 -228,119 -358,134 -168,19 -338,36 -505,51 -67,7 -251,13 -297,39 -49,28 -109,197 -130,253 -34,90 -59,195 -140,251 -44,30 -285,175 -321,174 -66,-2 -94,-258 -177,-281 -62,-17 -235,164 -319,194 -79,28 -193,-52 -215,-127 -14,-47 -40,-331 -28,-374 13,-49 171,-267 212,-342 54,-101 73,-292 86,-407 10,-97 9,-203 22,-293 14,-96 191,-380 247,-479 82,-144 109,-271 154,-428 42,-149 98,-267 160,-407 63,-143 126,-301 195,-439 13,-26 236,-181 272,-207 105,-77 208,-164 325,-218 78,-36 157,-71 235,-106 157,-69 276,-112 416,-215 56,-42 145,-101 192,-144 70,-65 41,-144 24,-232 -15,-75 -32,-112 54,-120 156,-13 326,-16 483,-23 46,-2 273,-8 300,-17 48,-18 261,-300 321,-360 65,-66 193,-79 281,-93 371,-59 699,-157 1058,-258 -124,-8 -250,-12 -377,-12 -2211,0 -4147,1176 -5218,2936 101,114 121,129 86,287 -30,132 -89,154 -114,236 -51,171 128,237 197,369 30,56 -27,198 -36,270 -10,87 -4,187 -11,278 -10,144 -16,255 -12,400 2,157 -20,245 -38,396 -10,84 18,139 44,218 11,36 33,29 74,40 80,22 93,19 81,111 -6,44 -86,149 -67,170 21,22 199,91 227,129 35,48 47,147 106,200 57,51 160,89 223,153 43,43 109,157 151,215 59,81 168,239 250,291 41,26 145,93 191,58 60,-44 94,-227 55,-296 -23,-40 -128,-108 -106,-142 18,-28 84,-75 121,-81 73,-12 394,7 424,-14 28,-20 -108,-160 -64,-209 49,-54 145,-50 161,-107 13,-47 28,-223 60,-243 34,-22 271,-52 314,-39 45,13 151,105 186,140 -24,82 -97,98 -85,227 4,35 33,275 50,288 22,16 303,-35 352,-49 80,-24 169,-53 249,-80 83,-27 92,-40 100,-129 6,-72 -50,-177 -39,-224 9,-37 179,-44 213,-49 84,-11 244,-82 306,-75 87,10 199,36 287,53 132,25 217,28 349,36 272,16 564,53 836,30 77,-7 78,-44 86,-119 14,-115 -38,-101 -142,-105 -22,-1 -106,-2 -115,-27 -11,-34 33,-111 80,-122 61,-15 280,-52 332,-33 86,32 234,95 306,149 139,106 150,134 333,115 109,-10 105,-49 59,-137 -78,-147 -206,-119 -315,-208 -17,-14 -23,-21 -34,-39 -17,-34 -27,-76 -30,-115 134,-14 559,84 693,133 55,20 203,115 177,184 -26,68 -95,69 -70,184 4,18 22,97 45,104 31,9 178,-76 199,-67 47,20 190,138 236,182 136,131 127,123 162,306 57,294 66,254 312,406z"/>
     <path class="fil3" d="M3257 2477c15,13 -73,201 169,36 -223,131 -129,27 -189,597 -8,78 -34,192 13,303 53,126 133,142 151,326l139 -57c88,24 -29,19 83,97 185,-38 15,-6 126,-42l161 -51c286,-108 504,-411 627,-676 -371,-205 -363,206 -748,-128 59,-192 71,-84 144,-205 58,-98 52,-211 90,-325 -806,6 -204,-33 -766,125z"/>
     <path class="fil4" d="M5080 9020c107,-31 201,-90 316,-123 168,-48 298,-76 471,-33 87,22 266,76 349,40 50,-22 159,-88 208,-51 84,63 278,330 354,335 48,2 173,-32 226,-43 48,-10 287,-61 323,-45 75,33 245,251 362,310 72,37 382,157 455,159 75,2 228,-45 311,-63 87,-19 234,-41 299,-104 36,-35 133,-177 176,-172 50,5 289,107 331,142 49,42 114,167 184,128 39,-21 133,-102 176,-134 64,-48 195,-148 279,-96 75,47 -32,191 -64,243 -5,9 -68,102 -41,105 30,4 193,-67 218,-84 55,-37 78,-143 97,-203 33,-106 68,-204 104,-308 79,-232 67,-371 62,-610 -6,-254 -20,-239 -114,-461 -82,-190 -20,-193 157,-241 136,-37 271,-53 411,-59 181,-6 230,85 286,86 43,2 184,-126 225,-160 179,-150 284,-246 517,-299 105,-23 97,6 81,101 -14,85 -95,429 -83,486 13,62 138,135 190,175 164,-504 265,-1037 293,-1589 -93,-27 -187,-51 -280,-79 -122,-36 -189,-71 -303,-125 -53,-26 -96,-54 -154,-53 -57,1 -298,6 -337,25 -29,15 -74,151 -92,190 -35,73 -142,202 -156,248 -17,52 60,240 56,298 -2,23 -182,120 -217,136 -144,65 -304,126 -452,186 -50,20 -48,28 -95,13 -259,-80 -520,-171 -779,-255 -229,-74 -455,-123 -682,-192 -150,-47 -257,-139 -389,-221 -246,-152 -255,-112 -312,-406 -35,-183 -26,-175 -162,-306 -46,-44 -189,-162 -236,-182 -21,-9 -168,76 -199,67 -23,-7 -41,-86 -45,-104 -25,-115 44,-116 70,-184 26,-69 -122,-164 -177,-184 -134,-49 -559,-147 -693,-133 3,39 13,81 30,115 11,18 17,25 34,39 109,89 237,61 315,208 46,88 50,127 -59,137 -183,19 -194,-9 -333,-115 -72,-54 -220,-117 -306,-149 -52,-19 -271,18 -332,33 -47,11 -91,88 -80,122 9,25 93,26 115,27 104,4 156,-10 142,105 -8,75 -9,112 -86,119 -272,23 -564,-14 -836,-30 -132,-8 -217,-11 -349,-36 -88,-17 -200,-43 -287,-53 -62,-7 -222,64 -306,75 -34,5 -204,12 -213,49 -11,47 45,152 39,224 -8,89 -17,102 -100,129 -80,27 -169,56 -249,80 -49,14 -330,65 -352,49 -17,-13 -46,-253 -50,-288 -12,-129 61,-145 85,-227 -35,-35 -141,-127 -186,-140 -43,-13 -280,17 -314,39 -32,20 -47,196 -60,243 -16,57 -112,53 -161,107 -44,49 92,189 64,209 -30,21 -351,2 -424,14 -37,6 -103,53 -121,81 -22,34 83,102 106,142 39,69 5,252 -55,296 -46,35 -150,-32 -191,-58 -82,-52 -191,-210 -250,-291 -42,-58 -108,-172 -151,-215 -63,-64 -166,-102 -223,-153 -59,-53 -71,-152 -106,-200 -28,-38 -206,-107 -227,-129 -19,-21 61,-126 67,-170 12,-92 -1,-89 -81,-111 -41,-11 -63,-4 -74,-40 -26,-79 -54,-134 -44,-218 18,-151 40,-239 38,-396 -4,-145 2,-256 12,-400 7,-91 1,-191 11,-278 9,-72 66,-214 36,-270 -69,-132 -248,-198 -197,-369 25,-82 84,-104 114,-236 35,-158 15,-173 -86,-287 -231,379 -421,784 -565,1211 -6,91 -59,842 -53,863 9,30 71,-41 80,-50 78,-80 154,-173 233,-249 58,-57 43,-8 37,55 -15,138 -37,303 -63,439 -19,102 -50,199 -70,298 -21,108 16,297 30,412 17,142 32,288 52,429 13,96 66,245 97,340 33,101 23,87 139,66 35,-7 160,-38 185,-7 22,28 226,511 259,586 113,262 211,516 313,782 40,103 42,85 130,146 159,110 330,227 484,342 55,42 242,241 268,252 64,29 213,63 292,85 310,86 629,178 941,253 100,23 96,10 195,-19 47,-13 299,-76 320,-102 29,-34 51,-120 96,-132 54,-13 275,21 346,29 102,12 316,45 410,17z"/>
     <path class="fil5" d="M3603 10738c20,26 88,5 115,-1 257,-52 217,-71 481,-19 19,3 38,7 57,9 43,6 79,9 122,8 104,-3 203,-11 309,-13 134,-6 102,-54 147,-168 53,-136 131,-98 254,-81 40,6 215,20 236,40 45,42 60,204 173,269 66,38 272,142 303,202 29,56 69,202 90,270 10,29 50,165 66,181 17,18 336,127 388,147 180,68 162,53 336,-21 227,-96 460,-192 688,-284 104,-42 261,-72 375,-99 116,-27 231,-61 350,-72 233,-21 467,-38 699,-60 92,-9 240,-109 300,-175 69,-77 156,-201 219,-287 22,-30 98,-142 123,-162 148,-119 299,-243 448,-360 47,-36 55,-34 110,-53 21,-7 107,-38 126,-27 18,10 35,82 39,102 10,55 20,210 95,203 40,-4 193,-94 242,-119 85,-43 130,-67 209,-122l298 -208c409,-537 731,-1143 945,-1797 -52,-40 -177,-113 -190,-175 -12,-57 69,-401 83,-486 16,-95 24,-124 -81,-101 -233,53 -338,149 -517,299 -41,34 -182,162 -225,160 -56,-1 -105,-92 -286,-86 -140,6 -275,22 -411,59 -177,48 -239,51 -157,241 94,222 108,207 114,461 5,239 17,378 -62,610 -36,104 -71,202 -104,308 -19,60 -42,166 -97,203 -25,17 -188,88 -218,84 -27,-3 36,-96 41,-105 32,-52 139,-196 64,-243 -84,-52 -215,48 -279,96 -43,32 -137,113 -176,134 -70,39 -135,-86 -184,-128 -42,-35 -281,-137 -331,-142 -43,-5 -140,137 -176,172 -65,63 -212,85 -299,104 -83,18 -236,65 -311,63 -73,-2 -383,-122 -455,-159 -117,-59 -287,-277 -362,-310 -36,-16 -275,35 -323,45 -53,11 -178,45 -226,43 -76,-5 -270,-272 -354,-335 -49,-37 -158,29 -208,51 -83,36 -262,-18 -349,-40 -173,-43 -303,-15 -471,33 -115,33 -209,92 -316,123 -94,28 -308,-5 -410,-17 -71,-8 -292,-42 -346,-29 -45,12 -67,98 -96,132 -21,26 -273,89 -320,102 -99,29 -95,42 -195,19 -312,-75 -631,-167 -941,-253 -79,-22 -228,-56 -292,-85 -26,-11 -213,-210 -268,-252 -154,-115 -325,-232 -484,-342 -88,-61 -90,-43 -130,-146 -102,-266 -200,-520 -313,-782 -33,-75 -237,-558 -259,-586 -25,-31 -150,0 -185,7 -116,21 -106,35 -139,-66 -31,-95 -84,-244 -97,-340 -20,-141 -35,-287 -52,-429 -14,-115 -51,-304 -30,-412 20,-99 51,-196 70,-298 26,-136 48,-301 63,-439 6,-63 21,-112 -37,-55 -79,76 -155,169 -233,249 -9,9 -71,80 -80,50 -6,-21 47,-772 53,-863 -208,614 -321,1273 -321,1957 0,117 3,232 10,347 98,256 198,511 286,771 30,91 121,394 164,454 42,59 105,130 151,189 148,183 303,370 446,556 115,149 171,305 261,465 85,153 159,99 293,159 57,25 126,141 162,194 116,169 237,294 361,451 92,116 147,251 232,356 53,65 317,287 388,313 78,28 279,41 374,52 61,7 280,27 322,43 90,34 65,180 115,246z"/>
     <path class="fil6" d="M3718 10737c-27,6 -95,27 -115,1 -50,-66 -25,-212 -115,-246 -42,-16 -261,-36 -322,-43 -95,-11 -296,-24 -374,-52 -71,-26 -335,-248 -388,-313 -85,-105 -140,-240 -232,-356 -124,-157 -245,-282 -361,-451 -36,-53 -105,-169 -162,-194 -134,-60 -208,-6 -293,-159 -90,-160 -146,-316 -261,-465 -143,-186 -298,-373 -446,-556 -46,-59 -109,-130 -151,-189 -43,-60 -134,-363 -164,-454 -88,-260 -188,-515 -286,-771 180,3210 2839,5758 6094,5758 1983,0 3744,-945 4859,-2409l-298 208c-79,55 -124,79 -209,122 -49,25 -202,115 -242,119 -75,7 -85,-148 -95,-203 -4,-20 -21,-92 -39,-102 -19,-11 -105,20 -126,27 -55,19 -63,17 -110,53 -149,117 -300,241 -448,360 -25,20 -101,132 -123,162 -63,86 -150,210 -219,287 -60,66 -208,166 -300,175 -232,22 -466,39 -699,60 -119,11 -234,45 -350,72 -114,27 -271,57 -375,99 -228,92 -461,188 -688,284 -174,74 -156,89 -336,21 -52,-20 -371,-129 -388,-147 -16,-16 -56,-152 -66,-181 -21,-68 -61,-214 -90,-270 -31,-60 -237,-164 -303,-202 -113,-65 -128,-227 -173,-269 -21,-20 -196,-34 -236,-40 -123,-17 -201,-55 -254,81 -45,114 -13,162 -147,168 -106,2 -205,10 -309,13 -43,1 -79,-2 -122,-8 -19,-2 -38,-6 -57,-9 -264,-52 -224,-33 -481,19z"/>
    </g>
    <path class="fil7" d="M12247 6142c0,-3371 -2733,-6104 -6105,-6104 2520,0 4563,2733 4563,6104 0,3372 -2043,6105 -4563,6105 3372,0 6105,-2733 6105,-6105z"/>
   </g>
  </g>
 </g>
</svg>
