<?xml version="1.0" encoding="UTF-8"?>
<!DOCTYPE svg PUBLIC "-//W3C//DTD SVG 1.1//EN" "http://www.w3.org/Graphics/SVG/1.1/DTD/svg11.dtd">
<!-- Creator: CorelDRAW X8 -->
<svg xmlns="http://www.w3.org/2000/svg" xml:space="preserve" width="210mm" height="210mm" version="1.1" style="shape-rendering:geometricPrecision; text-rendering:geometricPrecision; image-rendering:optimizeQuality; fill-rule:evenodd; clip-rule:evenodd"
viewBox="0 0 21000 21000"
 xmlns:xlink="http://www.w3.org/1999/xlink">
 <defs>
  <style type="text/css">
   <![CDATA[
    .str0 {stroke:#2B2A29;stroke-width:20}
    .fil0 {fill:none}
    .fil3 {fill:#FEFEFE}
    .fil1 {fill:#5C9BAD}
    .fil2 {fill:#B8926C}
    .fil4 {fill:#2B2A29;fill-opacity:0.200000}
   ]]>
  </style>
 </defs>
 <g id="Ebene_x0020_1">
  <metadata id="CorelCorpID_0Corel-Layer"/>
  <g id="_172414584">
   <g>
    <path class="fil0 str0" d="M1306 5424c1124,2280 3308,-74 4103,1783 221,515 357,-206 769,1400 247,959 116,3239 638,3972 236,332 137,1914 1921,1550 488,-99 840,-2044 1303,-2559 336,-373 103,-526 1091,-1009 850,-414 1013,-2034 748,-2777 -300,-844 533,-2792 1419,-2943 719,-122 1747,-1173 371,-1173 -2295,0 -2560,-2050 -1091,-1421 208,90 492,1345 2147,913 11,-53 849,-1063 -68,-1496 -1338,-632 198,-544 273,-686"/>
    <path class="fil1" d="M10500 21000c5799,0 10500,-4701 10500,-10500 0,-4216 -2485,-7852 -6070,-9522 -75,142 -1611,54 -273,686 917,433 79,1443 68,1496 -1655,432 -1939,-823 -2147,-913 -1469,-629 -1204,1421 1091,1421 1376,0 348,1051 -371,1173 -886,151 -1719,2099 -1419,2943 265,743 102,2363 -748,2777 -988,483 -755,636 -1091,1009 -463,515 -815,2460 -1303,2559 -1784,364 -1685,-1218 -1921,-1550 -522,-733 -391,-3013 -638,-3972 -412,-1606 -548,-885 -769,-1400 -795,-1857 -2979,497 -4103,-1783 -832,1505 -1306,3235 -1306,5076 0,5799 4701,10500 10500,10500z"/>
    <path class="fil2" d="M11879 7784c-300,-844 533,-2792 1419,-2943 719,-122 1747,-1173 371,-1173 -2295,0 -2560,-2050 -1091,-1421 208,90 492,1345 2147,913 11,-53 849,-1063 -68,-1496 -1338,-632 198,-544 273,-686 -1346,-628 -2847,-978 -4430,-978 -3958,0 -7405,2190 -9194,5424 1124,2280 3308,-74 4103,1783 221,515 357,-206 769,1400 247,959 116,3239 638,3972 236,332 137,1914 1921,1550 488,-99 840,-2044 1303,-2559 336,-373 103,-526 1091,-1009 850,-414 1013,-2034 748,-2777z"/>
    <path class="fil3" d="M6978 7234c-1486,1643 2222,2233 2111,165 -32,-600 -1150,-947 -1755,-947 -1315,0 527,-742 1083,-526 991,385 1574,1114 1800,2202 363,1753 -1182,2716 -2748,2716 -1136,0 -1136,13 -1935,-687 -601,-527 -659,-2169 165,-2577 689,-342 369,-346 1219,-346l60 0z"/>
    <path class="fil3" d="M18459 15280c841,-459 -163,-2030 658,-2541 755,-470 293,-419 464,-834 285,-693 -722,-1736 -1424,-1118 -313,274 -1430,882 -1852,871 -2017,-51 -1259,-2107 -2549,-1722 -962,288 -309,1045 -785,1588 -388,443 10,1029 52,1245 223,1150 1262,1392 209,2264 -37,31 -63,95 -104,123 -364,253 -160,962 138,947 1660,-86 1525,641 1956,662 1442,71 1026,-1175 1632,-1362 1251,-385 2,752 1605,-123z"/>
    <path class="fil3" d="M18414 7422c-508,-103 290,-807 1269,49 298,260 -133,608 957,565l79 39c-259,-1093 -688,-2120 -1259,-3052 -28,11 -152,51 -178,50 -854,-34 -652,622 -1684,-154 -1071,-807 -1405,220 -1814,1100 -300,1591 -272,1974 1687,2137 17,1 699,969 1307,117 223,-315 -17,-780 -364,-851z"/>
    <path class="fil3" d="M13036 18773c-717,-760 635,-718 888,-946 799,-721 -1971,-137 -2504,-401 -1433,-710 -590,-918 -1625,-1287 -785,-280 -1352,202 -1993,-154 -881,-487 -619,-538 -775,-1194 -172,-726 -202,-635 -834,-781 -700,-163 -1718,-991 -2081,-854 -1231,466 -841,594 -841,1378 0,1702 376,1190 648,1657 624,1069 123,1266 -933,1643 614,629 1306,1181 2061,1641 311,65 937,132 1188,-74 221,-181 965,-240 1402,-425 407,-173 1116,261 1396,604 304,372 999,297 1400,82 848,-453 1173,80 1502,140 701,129 1670,558 1982,-377 323,-108 -732,-493 -881,-652z"/>
   </g>
   <path class="fil4" d="M10500 21000c5799,0 10500,-4701 10500,-10500 0,-5799 -4701,-10500 -10500,-10500 4334,0 7848,4701 7848,10500 0,5799 -3514,10500 -7848,10500z"/>
  </g>
 </g>
</svg>
