<?xml version="1.0" encoding="UTF-8"?>
<!DOCTYPE svg PUBLIC "-//W3C//DTD SVG 1.1//EN" "http://www.w3.org/Graphics/SVG/1.1/DTD/svg11.dtd">
<!-- Creator: CorelDRAW X8 -->
<svg xmlns="http://www.w3.org/2000/svg" xml:space="preserve" width="210mm" height="210mm" version="1.1" style="shape-rendering:geometricPrecision; text-rendering:geometricPrecision; image-rendering:optimizeQuality; fill-rule:evenodd; clip-rule:evenodd"
viewBox="0 0 21000 21000"
 xmlns:xlink="http://www.w3.org/1999/xlink">
 <defs>
  <style type="text/css">
   <![CDATA[
    .fil3 {fill:#A38D7A}
    .fil0 {fill:#A6886D}
    .fil2 {fill:#A68B73}
    .fil6 {fill:#AD875F}
    .fil4 {fill:#B38E6E}
    .fil5 {fill:#B89F8A}
    .fil1 {fill:#CECFD4}
    .fil7 {fill:#2B2A29;fill-opacity:0.200000}
   ]]>
  </style>
 </defs>
 <g id="Ebene_x0020_1">
  <metadata id="CorelCorpID_0Corel-Layer"/>
  <g id="_610471352">
   <g>
    <path class="fil0" d="M3476 18303c2552,2294 6176,3291 9737,2337 1710,-459 3208,-1314 4421,-2441 -45,2 -198,68 -232,83 -299,125 -1890,239 -2017,153 -253,-169 -2036,-104 -2454,-104 -1061,0 -2187,93 -3224,-51 -199,-28 -4484,-34 -4557,2 -190,93 -1395,10 -1674,21z"/>
    <path class="fil1" d="M3927 16890c-27,96 81,210 240,255 160,44 311,2 338,-95 27,-96 -81,-211 -240,-255 -160,-44 -311,-2 -338,95z"/>
    <path class="fil1" d="M6038 16651c-35,127 111,278 326,338 216,60 419,7 454,-119 35,-127 -111,-278 -326,-338 -215,-60 -418,-7 -454,119z"/>
    <path class="fil1" d="M8197 16744c41,178 320,266 623,196 304,-70 516,-270 476,-448 -41,-178 -320,-266 -624,-196 -303,70 -516,270 -475,448z"/>
    <path class="fil1" d="M10028 11895c1429,0 1436,499 3262,274 1476,-181 2028,-274 3573,-274 1097,0 1636,-279 2344,-279 211,0 1568,303 1709,158 96,-783 104,-1584 17,-2390 -75,7 -39,2 -96,-20 -353,-133 -1841,-16 -2089,-109 -508,-190 -774,-205 -1314,-205 -434,0 -1761,249 -2079,133 -168,-62 -1103,78 -1189,123 -371,195 -1647,7 -2071,-109 -474,-130 -2453,217 -2966,69 -400,-115 -1196,-235 -1600,-86 -441,163 -878,177 -1361,177 -592,0 -1473,-328 -1907,-188 -1255,406 -1270,-44 -1877,46 -768,114 -1584,243 -2280,-192 -136,955 -141,1939 -2,2929 745,164 2202,329 2957,125 272,-74 6283,-182 6969,-182z"/>
    <path class="fil2" d="M12095 9197c424,116 1700,304 2071,109 86,-45 1021,-185 1189,-123 318,116 1645,-133 2079,-133 540,0 806,15 1314,205 248,93 1736,-24 2089,109 57,22 21,27 96,20 -57,-533 -156,-1067 -299,-1601 -37,-135 -75,-268 -116,-400 -103,-42 -312,-27 -400,10 -365,150 -446,76 -769,150 -226,52 -845,41 -989,-36 -683,-366 -683,-78 -1061,-94 -735,-31 -554,252 -1054,252 -887,0 -1216,-419 -1619,-419 -892,0 -1011,-87 -1821,202 -204,73 -480,164 -698,70 -531,-231 -948,524 -1340,363 -572,-236 -1662,-81 -2038,-282 -238,-127 -2484,58 -2852,156 -783,211 -1074,-191 -1251,-205 -741,-58 -329,204 -1198,280 -1234,107 -969,-166 -1286,-196 -726,-69 -941,137 -1705,-129 -147,495 -259,1002 -333,1518 696,435 1512,306 2280,192 607,-90 622,360 1877,-46 434,-140 1315,188 1907,188 483,0 920,-14 1361,-177 404,-149 1200,-29 1600,86 513,148 2492,-199 2966,-69z"/>
    <path class="fil1" d="M10767 7881c392,161 809,-594 1340,-363 218,94 494,3 698,-70 810,-289 929,-202 1821,-202 403,0 732,419 1619,419 500,0 319,-283 1054,-252 378,16 378,-272 1061,94 144,77 763,88 989,36 323,-74 404,0 769,-150 88,-37 297,-52 400,-10 -99,-319 -212,-631 -338,-933 -111,39 -760,-21 -1036,47 -731,179 -1966,-192 -2524,-173 -1906,67 -3928,28 -5853,28 -746,0 -1274,112 -2026,112 -582,0 -2287,-222 -2678,-102 -648,199 -1335,215 -2018,74 -253,-52 -2954,-62 -3222,-7 -147,351 -276,710 -386,1076 764,266 979,60 1705,129 317,30 52,303 1286,196 869,-76 457,-338 1198,-280 177,14 468,416 1251,205 368,-98 2614,-283 2852,-156 376,201 1466,46 2038,282z"/>
    <path class="fil3" d="M10767 6352c1925,0 3947,39 5853,-28 558,-19 1793,352 2524,173 276,-68 925,-8 1036,-47 -71,-171 -146,-339 -226,-504 -318,129 -773,100 -1117,69 -753,-69 -1516,-239 -2266,-107 -1094,192 -2187,-2 -3233,130 -520,66 -2076,-223 -2292,-125 -292,132 -2687,122 -3164,71 -763,-81 -1012,-79 -1791,-79 -511,0 -1454,144 -1851,77 -604,-101 -1121,-77 -1735,-77 -566,0 -983,88 -1483,82 -70,146 -136,293 -199,442 268,-55 2969,-45 3222,7 683,141 1370,125 2018,-74 391,-120 2096,102 2678,102 752,0 1280,-112 2026,-112z"/>
    <path class="fil1" d="M7882 5984c477,51 2872,61 3164,-71 216,-98 1772,191 2292,125 1046,-132 2139,62 3233,-130 750,-132 1513,38 2266,107 344,31 799,60 1117,-69 -157,-329 -331,-646 -519,-953 -15,2 -134,36 -140,40 -98,70 -1075,124 -1207,69 -250,-102 -2006,-212 -2264,-127 -710,235 -2884,79 -3767,79 -1046,0 -2081,-408 -3065,39 -299,136 -3293,128 -3784,128 -1239,0 -2445,-347 -3655,-212 -194,317 -372,643 -531,978 500,6 917,-82 1483,-82 614,0 1131,-24 1735,77 397,67 1340,-77 1851,-77 779,0 1028,-2 1791,79z"/>
    <path class="fil4" d="M15514 14082c84,566 1461,623 1898,253 186,-157 86,-407 10,-576 -136,-301 -587,-372 -847,-276 -294,110 -264,203 -330,339 19,-26 43,-52 70,-84 154,-185 721,-113 802,-2 285,389 -193,489 -478,560 -74,0 -150,-7 -224,-23 -238,-49 -457,-181 -543,-424 -404,-1137 1866,-1192 2163,-335 331,957 14,1299 -491,1399 294,161 1861,-405 2480,-447 -155,-88 -508,-162 -644,-253 -156,-105 -1006,-1090 -1116,-1250 -277,-401 -1176,-630 -1634,-454 -897,347 -754,254 -1098,698l1 21c-74,235 -103,133 -103,433 0,211 62,274 84,421z"/>
    <path class="fil0" d="M13459 14156c795,131 1770,723 2343,699 399,-18 1185,168 1742,58 505,-100 822,-442 491,-1399 -297,-857 -2567,-802 -2163,335 86,243 305,375 543,424 -43,-50 -214,-122 -224,-200 -10,-84 -4,-139 15,-184 10,-24 23,-45 39,-67 66,-136 36,-229 330,-339 260,-96 711,-25 847,276 76,169 176,419 -10,576 -437,370 -1814,313 -1898,-253 -22,-147 -84,-210 -84,-421 0,-300 29,-198 103,-433l-1 -21c-74,96 -171,217 -306,373 -698,805 -859,428 -1767,576z"/>
    <path class="fil0" d="M3408 14012c201,25 359,284 1275,284 1228,0 2221,-256 3359,-116 813,100 904,284 2000,284 944,0 1887,89 2745,-265 195,-81 425,-84 672,-43 908,-148 1069,229 1767,-576 135,-156 232,-277 306,-373 344,-444 201,-351 1098,-698 458,-176 1357,53 1634,454 110,160 960,1145 1116,1250 136,91 489,165 644,253 27,-2 53,-3 77,-2 55,0 84,13 122,-19 345,-850 580,-1747 693,-2671 -141,145 -1498,-158 -1709,-158 -708,0 -1247,279 -2344,279 -1545,0 -2097,93 -3573,274 -1826,225 -1833,-274 -3262,-274 -686,0 -6697,108 -6969,182 -755,204 -2212,39 -2957,-125 60,421 145,844 258,1265 78,290 167,574 267,852 1047,-503 1818,-175 2781,-57z"/>
    <ellipse class="fil1" transform="matrix(1.52558 0.420776 -0.420652 1.52603 6442.21 4028.28)" rx="168" ry="132"/>
    <ellipse class="fil1" transform="matrix(1.55444 -0.296805 0.296718 1.5549 9247.55 2988.19)" rx="229" ry="137"/>
    <ellipse class="fil1" transform="matrix(1.50061 0.502646 -0.502498 1.50105 12276.2 3874.72)" rx="194" ry="141"/>
    <path class="fil5" d="M12057 5054c883,0 3057,156 3767,-79 258,-85 2014,25 2264,127 132,55 1109,1 1207,-69 6,-4 125,-38 140,-40 -2369,-3851 -7064,-5863 -11654,-4633 -2701,724 -4873,2439 -6228,4649 1210,-135 2416,212 3655,212 491,0 3485,8 3784,-128 984,-447 2019,-39 3065,-39zm290 -1391c161,54 260,192 220,309 -39,117 -201,168 -362,115 -161,-54 -259,-193 -220,-310 39,-117 201,-168 362,-114zm-5849 163c141,39 231,161 200,273 -31,111 -170,170 -311,131 -142,-39 -231,-161 -200,-272 30,-112 170,-171 311,-132zm2709 -1050c197,-38 375,27 397,144 22,118 -119,243 -316,281 -197,37 -374,-27 -397,-145 -22,-117 119,-243 316,-280z"/>
    <path class="fil0" d="M9707 18280c1037,144 2163,51 3224,51 418,0 2201,-65 2454,104 127,86 1718,-28 2017,-153 34,-15 187,-81 232,-83 915,-850 1668,-1855 2227,-2960 -66,-10 -387,87 -483,112 -1472,383 -2782,-3 -4252,-147 -292,-28 -435,-85 -679,-132 -1296,-251 -1223,-275 -2511,0 -535,114 -1874,223 -2383,48 -307,-104 -1944,-338 -2185,-218 -147,73 -1514,51 -1825,51 -600,0 -1047,-32 -1629,-58 -1067,-48 -1844,-584 -3078,-292 611,1445 1523,2697 2640,3700 279,-11 1484,72 1674,-21 73,-36 4358,-30 4557,-2zm-411 -1788c40,178 -172,378 -476,448 -303,70 -582,-18 -623,-196 -41,-178 172,-378 475,-448 304,-70 583,18 624,196zm-2804 40c215,60 361,211 326,338 -35,126 -238,179 -454,119 -215,-60 -361,-211 -326,-338 36,-126 239,-179 454,-119zm-2227 263c159,44 267,159 240,255 -27,97 -178,139 -338,95 -159,-45 -267,-159 -240,-255 27,-97 178,-139 338,-95z"/>
    <path class="fil1" d="M5543 14953c311,0 1678,22 1825,-51 241,-120 1878,114 2185,218 509,175 1848,66 2383,-48 1288,-275 1215,-251 2511,0 244,47 387,104 679,132 1470,144 2780,530 4252,147 96,-25 417,-122 483,-112 131,-259 252,-524 362,-794 -38,32 -67,19 -122,19 -24,-1 -50,0 -77,2 -619,42 -2186,608 -2480,447 -557,110 -1343,-76 -1742,-58 -573,24 -1548,-568 -2343,-699 -247,-41 -477,-38 -672,43 -858,354 -1801,265 -2745,265 -1096,0 -1187,-184 -2000,-284 -1138,-140 -2131,116 -3359,116 -916,0 -1074,-259 -1275,-284 -963,-118 -1734,-446 -2781,57 65,181 135,359 209,534 1234,-292 2011,244 3078,292 582,26 1029,58 1629,58z"/>
    <path class="fil6" d="M16415 14273c74,16 150,23 224,23 285,-71 763,-171 478,-560 -81,-111 -648,-183 -802,2 -27,32 -51,58 -70,84 -16,22 -29,43 -39,67 -19,45 -25,100 -15,184 10,78 181,150 224,200z"/>
   </g>
   <path class="fil7" d="M10503 21000c5797,0 10497,-4701 10497,-10500 0,-5799 -4700,-10500 -10497,-10500 4333,0 7846,4701 7846,10500 0,5799 -3513,10500 -7846,10500z"/>
  </g>
 </g>
</svg>
