<?xml version="1.0" encoding="UTF-8"?>
<!DOCTYPE svg PUBLIC "-//W3C//DTD SVG 1.1//EN" "http://www.w3.org/Graphics/SVG/1.1/DTD/svg11.dtd">
<!-- Creator: CorelDRAW X8 -->
<svg xmlns="http://www.w3.org/2000/svg" xml:space="preserve" width="210mm" height="210mm" version="1.1" style="shape-rendering:geometricPrecision; text-rendering:geometricPrecision; image-rendering:optimizeQuality; fill-rule:evenodd; clip-rule:evenodd"
viewBox="0 0 21000 21000"
 xmlns:xlink="http://www.w3.org/1999/xlink">
 <defs>
  <style type="text/css">
   <![CDATA[
    .fil5 {fill:#63412D}
    .fil4 {fill:#855535}
    .fil3 {fill:#B57F53}
    .fil1 {fill:#C78E68}
    .fil0 {fill:#D19F75}
    .fil2 {fill:#E6BB9F}
    .fil6 {fill:#2B2A29;fill-opacity:0.200000}
   ]]>
  </style>
 </defs>
 <g id="Ebene_x0020_1">
  <metadata id="CorelCorpID_0Corel-Layer"/>
  <g id="_610489088">
   <g>
    <path class="fil0" d="M13571 9089c196,33 1112,192 1244,177 108,-13 308,-141 415,-198 61,-33 452,-234 468,-270 33,-76 75,-231 102,-315 14,-44 91,-251 71,-292 -44,-92 -726,-536 -737,-626 -15,-125 140,-532 101,-599 -34,-60 -505,-271 -625,-394 -210,-215 -400,-477 -606,-695 -107,-114 -194,-162 -302,-257 -82,-73 -70,-97 22,-152 143,-85 445,-242 612,-235 259,11 631,117 894,175 49,10 361,66 399,57 355,-87 236,-661 -73,-728 -52,-12 -203,-81 -262,-98 -506,-155 -1008,-315 -1506,-494l-25 -9c-96,-35 -375,-126 -427,-214 -57,-97 -292,-379 -381,-435l-11 -6c-36,-15 -513,-8 -591,-8 -175,2 -175,29 -316,125 -63,43 -385,281 -434,283 -92,4 -210,-328 -246,-410 -137,-315 -269,-639 -158,-981 27,-84 99,-320 180,-357 110,-51 717,-101 902,-153 133,-48 90,-131 53,-247 -32,-100 -151,-402 -22,-466l22 -7c66,-17 176,10 244,24 487,78 981,123 1462,239 182,44 367,83 548,127 146,36 219,86 353,155 81,41 556,275 596,320 108,122 235,304 336,438 201,268 393,518 580,798 86,126 557,774 648,812 220,91 493,-73 658,240 72,138 132,293 197,437 91,201 183,402 285,599 106,204 213,246 390,378 482,359 329,273 927,316 137,10 145,16 263,86 123,72 246,149 370,223 -1505,-3600 -4959,-6184 -9043,-6432 -618,175 -1182,342 -1820,443 -152,25 -371,48 -483,160 -104,105 -469,589 -553,620 -45,16 -436,27 -515,30 -270,12 -564,17 -831,40 -148,14 -119,77 -94,206 30,150 80,286 -41,398 -81,75 -234,177 -330,248 -241,178 -445,251 -715,370 -135,60 -270,120 -405,182 -201,94 -377,244 -559,375 -62,46 -445,311 -468,357 -118,237 -226,509 -335,755 -107,241 -202,444 -275,699 -78,271 -123,489 -265,738 -97,169 -401,657 -425,822 -22,156 -20,339 -38,504 -22,199 -54,527 -148,701 -70,129 -342,504 -365,589 -20,74 24,562 48,642 39,130 234,267 371,218 143,-50 442,-362 549,-332 141,40 190,479 303,482 63,2 478,-246 553,-298 139,-96 182,-278 241,-433 36,-95 139,-386 223,-434 79,-45 397,-56 510,-67 289,-27 582,-55 869,-88 225,-25 414,-140 617,-230 426,-190 700,-313 1082,-592 140,-107 799,-650 915,-654 148,-5 208,289 252,403 116,301 234,316 530,391 288,73 265,6 517,-73 156,-49 213,-19 269,139 105,346 -104,374 -389,466 -380,123 -487,183 -798,436 -59,49 -118,98 -177,148 -95,80 -12,54 75,43 236,-30 1090,-160 1253,-12 89,82 227,390 329,376 164,-41 342,-448 379,-606 31,-131 65,-343 149,-446 90,-56 308,-8 417,2 541,49 479,86 654,589 62,175 63,159 228,244 172,89 343,176 515,265 180,94 404,219 604,253z"/>
    <path class="fil1" d="M14313 11327c226,141 410,300 668,379 392,120 780,204 1174,331 445,144 895,302 1340,439 82,25 77,12 164,-23 254,-102 529,-209 777,-320 61,-28 370,-193 373,-233 6,-100 -125,-423 -96,-514 25,-78 208,-300 268,-426 31,-67 108,-301 159,-327 66,-32 480,-41 580,-43 100,-2 172,48 264,91 196,94 312,154 522,216 159,48 321,89 481,136 9,-177 13,-354 13,-533 0,-1435 -288,-2802 -809,-4048 -124,-74 -247,-151 -370,-223 -118,-70 -126,-76 -263,-86 -598,-43 -445,43 -927,-316 -177,-132 -284,-174 -390,-378 -102,-197 -194,-398 -285,-599 -65,-144 -125,-299 -197,-437 -165,-313 -438,-149 -658,-240 -91,-38 -562,-686 -648,-812 -187,-280 -379,-530 -580,-798 -101,-134 -228,-316 -336,-438 -40,-45 -515,-279 -596,-320 -134,-69 -207,-119 -353,-155 -181,-44 -366,-83 -548,-127 -481,-116 -975,-161 -1462,-239 -68,-14 -178,-41 -244,-24l-22 7c-129,64 -10,366 22,466 37,116 80,199 -53,247 -185,52 -792,102 -902,153 -81,37 -153,273 -180,357 -111,342 21,666 158,981 36,82 154,414 246,410 49,-2 371,-240 434,-283 141,-96 141,-123 316,-125 78,0 555,-7 591,8l11 6c89,56 324,338 381,435 52,88 331,179 427,214l25 9c498,179 1000,339 1506,494 59,17 210,86 262,98 309,67 428,641 73,728 -38,9 -350,-47 -399,-57 -263,-58 -635,-164 -894,-175 -167,-7 -469,150 -612,235 -92,55 -104,79 -22,152 108,95 195,143 302,257 206,218 396,480 606,695 120,123 591,334 625,394 39,67 -116,474 -101,599 11,90 693,534 737,626 20,41 -57,248 -71,292 -27,84 -69,239 -102,315 -16,36 -407,237 -468,270 -107,57 -307,185 -415,198 -132,15 -1048,-144 -1244,-177 -200,-34 -424,-159 -604,-253 -172,-89 -343,-176 -515,-265 -165,-85 -166,-69 -228,-244 -175,-503 -113,-540 -654,-589 -109,-10 -327,-58 -417,-2 -84,103 -118,315 -149,446 -37,158 -215,565 -379,606 -102,14 -240,-294 -329,-376 -163,-148 -1017,-18 -1253,12 -87,11 -170,37 -75,-43 59,-50 118,-99 177,-148 311,-253 418,-313 798,-436 285,-92 494,-120 389,-466 -56,-158 -113,-188 -269,-139 -252,79 -229,146 -517,73 -296,-75 -414,-90 -530,-391 -44,-114 -104,-408 -252,-403 -116,4 -775,547 -915,654 -382,279 -656,402 -1082,592 -203,90 -392,205 -617,230 -287,33 -580,61 -869,88 -113,11 -431,22 -510,67 -84,48 -187,339 -223,434 -59,155 -102,337 -241,433 -75,52 -490,300 -553,298 -113,-3 -162,-442 -303,-482 -107,-30 -406,282 -549,332 -137,49 -332,-88 -371,-218 -24,-80 -68,-568 -48,-642 23,-85 295,-460 365,-589 94,-174 126,-502 148,-701 18,-165 16,-348 38,-504 24,-165 328,-653 425,-822 142,-249 187,-467 265,-738 73,-255 168,-458 275,-699 109,-246 217,-518 335,-755 23,-46 406,-311 468,-357 182,-131 358,-281 559,-375 135,-62 270,-122 405,-182 270,-119 474,-192 715,-370 96,-71 249,-173 330,-248 121,-112 71,-248 41,-398 -25,-129 -54,-192 94,-206 267,-23 561,-28 831,-40 79,-3 470,-14 515,-30 84,-31 449,-515 553,-620 112,-112 331,-135 483,-160 638,-101 1202,-268 1820,-443 -214,-13 -430,-20 -648,-20 -3803,0 -7134,2022 -8977,5050 175,196 209,221 148,494 -50,226 -152,264 -195,406 -88,295 220,407 339,635 50,95 -47,340 -62,465 -17,148 -8,320 -19,477 -18,247 -27,438 -22,688 5,271 -33,421 -65,681 -17,144 32,239 76,375 20,63 56,50 127,69 138,37 161,32 140,191 -10,75 -148,255 -115,291 36,40 342,157 390,224 60,82 80,252 182,343 98,88 275,154 384,263 74,75 188,270 260,370 101,140 288,412 430,501 71,44 249,159 329,100 103,-76 162,-391 94,-509 -40,-70 -220,-186 -182,-244 31,-50 144,-131 208,-141 125,-20 678,13 729,-24 49,-34 -186,-275 -110,-358 84,-93 250,-86 277,-185 22,-80 49,-384 104,-419 58,-36 465,-88 539,-67 78,23 260,182 319,242 -40,141 -165,168 -144,391 5,59 56,473 86,495 37,27 520,-60 604,-85 138,-40 291,-91 429,-137 143,-47 157,-69 171,-223 11,-123 -85,-304 -66,-384 15,-63 308,-77 367,-85 143,-19 418,-140 526,-128 149,17 342,62 494,91 226,43 372,47 599,61 469,28 971,91 1438,52 133,-12 134,-76 149,-205 23,-197 -66,-174 -244,-181 -39,-2 -184,-2 -198,-45 -20,-60 56,-191 137,-211 104,-25 482,-89 571,-56 147,54 403,164 526,257 239,181 258,229 574,197 187,-18 180,-84 100,-236 -134,-253 -353,-205 -542,-358 -28,-23 -38,-36 -57,-66 -31,-59 -48,-132 -52,-199 229,-24 962,144 1192,229 94,34 349,198 304,316 -44,117 -163,119 -120,318 7,31 37,167 77,178 54,16 306,-130 343,-115 81,34 327,238 405,313 234,225 218,211 279,527 97,505 114,435 537,698z"/>
    <path class="fil2" d="M5537 4194c26,23 -126,347 291,62 -383,226 -222,48 -325,1028 -15,135 -59,330 21,521 92,217 229,244 261,561l239 -98c151,41 -50,32 142,167 318,-66 26,-10 216,-72l277 -88c493,-186 868,-707 1079,-1164 -638,-352 -624,355 -1285,-219 101,-331 121,-145 246,-353 101,-168 91,-362 156,-558 -1387,10 -352,-57 -1318,213z"/>
    <path class="fil3" d="M8672 15451c184,-54 347,-157 544,-213 290,-82 512,-131 810,-56 149,37 458,130 601,68 85,-37 272,-152 358,-87 144,108 478,567 609,575 81,5 296,-54 388,-74 83,-17 494,-105 555,-77 130,57 422,432 623,533 124,63 658,270 784,273 127,4 392,-76 533,-108 151,-33 404,-70 515,-178 62,-60 229,-304 302,-296 87,9 499,183 570,245 84,72 196,287 316,220 68,-37 230,-176 304,-231 110,-83 336,-255 479,-166 130,81 -55,329 -109,418 -10,17 -117,176 -72,182 53,6 332,-116 376,-145 94,-64 134,-246 166,-350 58,-182 118,-349 179,-529 136,-399 116,-638 107,-1049 -10,-436 -34,-412 -197,-793 -139,-327 -33,-332 272,-416 233,-63 466,-91 707,-100 310,-11 394,145 491,148 75,3 317,-217 388,-276 306,-258 487,-422 889,-513 179,-41 166,9 139,173 -24,146 -163,738 -143,835 23,107 237,233 326,301 284,-867 457,-1783 505,-2732 -160,-47 -322,-88 -481,-136 -210,-62 -326,-122 -522,-216 -92,-43 -164,-93 -264,-91 -100,2 -514,11 -580,43 -51,26 -128,260 -159,327 -60,126 -243,348 -268,426 -29,91 102,414 96,514 -3,40 -312,205 -373,233 -248,111 -523,218 -777,320 -87,35 -82,48 -164,23 -445,-137 -895,-295 -1340,-439 -394,-127 -782,-211 -1174,-331 -258,-79 -442,-238 -668,-379 -423,-263 -440,-193 -537,-698 -61,-316 -45,-302 -279,-527 -78,-75 -324,-279 -405,-313 -37,-15 -289,131 -343,115 -40,-11 -70,-147 -77,-178 -43,-199 76,-201 120,-318 45,-118 -210,-282 -304,-316 -230,-85 -963,-253 -1192,-229 4,67 21,140 52,199 19,30 29,43 57,66 189,153 408,105 542,358 80,152 87,218 -100,236 -316,32 -335,-16 -574,-197 -123,-93 -379,-203 -526,-257 -89,-33 -467,31 -571,56 -81,20 -157,151 -137,211 14,43 159,43 198,45 178,7 267,-16 244,181 -15,129 -16,193 -149,205 -467,39 -969,-24 -1438,-52 -227,-14 -373,-18 -599,-61 -152,-29 -345,-74 -494,-91 -108,-12 -383,109 -526,128 -59,8 -352,22 -367,85 -19,80 77,261 66,384 -14,154 -28,176 -171,223 -138,46 -291,97 -429,137 -84,25 -567,112 -604,85 -30,-22 -81,-436 -86,-495 -21,-223 104,-250 144,-391 -59,-60 -241,-219 -319,-242 -74,-21 -481,31 -539,67 -55,35 -82,339 -104,419 -27,99 -193,92 -277,185 -76,83 159,324 110,358 -51,37 -604,4 -729,24 -64,10 -177,91 -208,141 -38,58 142,174 182,244 68,118 9,433 -94,509 -80,59 -258,-56 -329,-100 -142,-89 -329,-361 -430,-501 -72,-100 -186,-295 -260,-370 -109,-109 -286,-175 -384,-263 -102,-91 -122,-261 -182,-343 -48,-67 -354,-184 -390,-224 -33,-36 105,-216 115,-291 21,-159 -2,-154 -140,-191 -71,-19 -107,-6 -127,-69 -44,-136 -93,-231 -76,-375 32,-260 70,-410 65,-681 -5,-250 4,-441 22,-688 11,-157 2,-329 19,-477 15,-125 112,-370 62,-465 -119,-228 -427,-340 -339,-635 43,-142 145,-180 195,-406 61,-273 27,-298 -148,-494 -396,651 -723,1349 -971,2083 -10,157 -102,1448 -91,1484 15,53 121,-70 137,-85 134,-138 266,-297 401,-429 100,-97 75,-13 63,95 -26,237 -64,521 -107,754 -34,177 -87,343 -121,513 -37,186 28,511 52,709 30,244 55,496 88,738 23,166 115,422 168,585 56,173 39,150 240,113 59,-11 274,-65 317,-11 38,47 390,878 446,1007 195,451 363,888 539,1346 67,176 72,146 223,251 273,190 567,390 832,588 95,72 416,414 461,434 111,49 366,107 502,145 533,149 1082,307 1619,435 172,41 165,17 335,-31 81,-23 516,-132 552,-176 48,-59 87,-207 165,-227 92,-23 472,36 594,50 176,20 544,76 705,30z"/>
    <path class="fil4" d="M6132 18405c35,45 151,8 198,-1 442,-90 372,-123 827,-34 33,6 65,12 98,17 74,10 137,14 211,13 179,-6 349,-20 530,-23 232,-10 175,-93 253,-289 92,-233 226,-168 437,-139 68,10 370,34 406,69 77,72 103,351 298,463 114,65 467,243 521,347 49,96 119,347 156,464 16,51 85,284 112,312 30,31 578,219 667,253 310,117 280,91 579,-36 390,-165 790,-330 1183,-489 180,-73 449,-123 645,-170 200,-47 398,-106 603,-124 399,-36 803,-65 1202,-104 158,-15 412,-188 515,-300 120,-132 269,-346 377,-493 39,-52 169,-245 212,-280 255,-205 513,-418 771,-619 80,-63 94,-59 189,-92 36,-12 185,-64 216,-46 32,18 61,141 68,176 18,94 33,362 163,349 68,-7 332,-162 416,-204 146,-74 223,-116 359,-210l514 -359c703,-922 1256,-1965 1624,-3091 -89,-68 -303,-194 -326,-301 -20,-97 119,-689 143,-835 27,-164 40,-214 -139,-173 -402,91 -583,255 -889,513 -71,59 -313,279 -388,276 -97,-3 -181,-159 -491,-148 -241,9 -474,37 -707,100 -305,84 -411,89 -272,416 163,381 187,357 197,793 9,411 29,650 -107,1049 -61,180 -121,347 -179,529 -32,104 -72,286 -166,350 -44,29 -323,151 -376,145 -45,-6 62,-165 72,-182 54,-89 239,-337 109,-418 -143,-89 -369,83 -479,166 -74,55 -236,194 -304,231 -120,67 -232,-148 -316,-220 -71,-62 -483,-236 -570,-245 -73,-8 -240,236 -302,296 -111,108 -364,145 -515,178 -141,32 -406,112 -533,108 -126,-3 -660,-210 -784,-273 -201,-101 -493,-476 -623,-533 -61,-28 -472,60 -555,77 -92,20 -307,79 -388,74 -131,-8 -465,-467 -609,-575 -86,-65 -273,50 -358,87 -143,62 -452,-31 -601,-68 -298,-75 -520,-26 -810,56 -197,56 -360,159 -544,213 -161,46 -529,-10 -705,-30 -122,-14 -502,-73 -594,-50 -78,20 -117,168 -165,227 -36,44 -471,153 -552,176 -170,48 -163,72 -335,31 -537,-128 -1086,-286 -1619,-435 -136,-38 -391,-96 -502,-145 -45,-20 -366,-362 -461,-434 -265,-198 -559,-398 -832,-588 -151,-105 -156,-75 -223,-251 -176,-458 -344,-895 -539,-1346 -56,-129 -408,-960 -446,-1007 -43,-54 -258,0 -317,11 -201,37 -184,60 -240,-113 -53,-163 -145,-419 -168,-585 -33,-242 -58,-494 -88,-738 -24,-198 -89,-523 -52,-709 34,-170 87,-336 121,-513 43,-233 81,-517 107,-754 12,-108 37,-192 -63,-95 -135,132 -267,291 -401,429 -16,15 -122,138 -137,85 -11,-36 81,-1327 91,-1484 -358,1057 -552,2189 -552,3367 0,200 6,399 17,596 169,441 341,880 492,1327 52,155 208,676 282,780 73,101 180,225 261,325 254,316 520,637 767,957 197,257 293,524 447,800 148,263 274,169 504,272 99,45 217,244 279,335 200,291 408,506 622,776 157,200 252,431 399,612 91,112 545,494 667,538 135,48 480,71 643,90 104,12 482,46 555,73 154,59 111,311 197,424z"/>
    <path class="fil5" d="M6330 18404c-47,9 -163,46 -198,1 -86,-113 -43,-365 -197,-424 -73,-27 -451,-61 -555,-73 -163,-19 -508,-42 -643,-90 -122,-44 -576,-426 -667,-538 -147,-181 -242,-412 -399,-612 -214,-270 -422,-485 -622,-776 -62,-91 -180,-290 -279,-335 -230,-103 -356,-9 -504,-272 -154,-276 -250,-543 -447,-800 -247,-320 -513,-641 -767,-957 -81,-100 -188,-224 -261,-325 -74,-104 -230,-625 -282,-780 -151,-447 -323,-886 -492,-1327 309,5522 4884,9904 10483,9904 3410,0 6440,-1625 8358,-4144l-514 359c-136,94 -213,136 -359,210 -84,42 -348,197 -416,204 -130,13 -145,-255 -163,-349 -7,-35 -36,-158 -68,-176 -31,-18 -180,34 -216,46 -95,33 -109,29 -189,92 -258,201 -516,414 -771,619 -43,35 -173,228 -212,280 -108,147 -257,361 -377,493 -103,112 -357,285 -515,300 -399,39 -803,68 -1202,104 -205,18 -403,77 -603,124 -196,47 -465,97 -645,170 -393,159 -793,324 -1183,489 -299,127 -269,153 -579,36 -89,-34 -637,-222 -667,-253 -27,-28 -96,-261 -112,-312 -37,-117 -107,-368 -156,-464 -54,-104 -407,-282 -521,-347 -195,-112 -221,-391 -298,-463 -36,-35 -338,-59 -406,-69 -211,-29 -345,-94 -437,139 -78,196 -21,279 -253,289 -181,3 -351,17 -530,23 -74,1 -137,-3 -211,-13 -33,-5 -65,-11 -98,-17 -455,-89 -385,-56 -827,34z"/>
   </g>
   <path class="fil6" d="M21000 10500c0,-5799 -4701,-10500 -10500,-10500 4334,0 7848,4701 7848,10500 0,5799 -3514,10500 -7848,10500 5799,0 10500,-4701 10500,-10500z"/>
  </g>
 </g>
</svg>
