<?xml version="1.0" encoding="UTF-8"?>
<!DOCTYPE svg PUBLIC "-//W3C//DTD SVG 1.1//EN" "http://www.w3.org/Graphics/SVG/1.1/DTD/svg11.dtd">
<!-- Creator: CorelDRAW X8 -->
<svg xmlns="http://www.w3.org/2000/svg" xml:space="preserve" width="210mm" height="210mm" version="1.1" style="shape-rendering:geometricPrecision; text-rendering:geometricPrecision; image-rendering:optimizeQuality; fill-rule:evenodd; clip-rule:evenodd"
viewBox="0 0 18293 18293"
 xmlns:xlink="http://www.w3.org/1999/xlink">
 <defs>
  <style type="text/css">
   <![CDATA[
    .fil4 {fill:#B5A091}
    .fil3 {fill:#BAA89B}
    .fil2 {fill:#C2AFA1}
    .fil1 {fill:#C4B6AB}
    .fil0 {fill:#CACACC}
    .fil5 {fill:#2B2A29;fill-opacity:0.200000}
   ]]>
  </style>
 </defs>
 <g id="Ebene_x0020_1">
  <metadata id="CorelCorpID_0Corel-Layer"/>
  <g id="_657216176">
   <g>
    <path class="fil0" d="M4065 3631l-92 197 161 76c5,0 17,-2 22,-1l222 33c157,44 8,39 124,42l307 -62c37,-5 60,-3 96,-4 70,-2 138,-2 193,-8 -2,-175 -48,-213 -165,-308l-109 -89c129,-60 179,-38 322,8 -22,-66 0,29 -34,-51 0,0 -116,-47 67,-183 7,-6 17,-12 25,-17 224,-150 255,-34 424,-21l106 -12c-103,-82 -252,-190 -418,-210 -41,58 66,89 -64,112 -105,-117 -3,-55 -68,-233l-211 32c-12,2 -44,13 -55,15 -181,38 -47,-47 -429,-122l-45 50c-96,101 -87,24 -81,167 -244,-61 -130,-16 -338,21 -150,27 -197,53 -359,36 62,84 -32,50 147,333 208,329 106,293 252,199z"/>
    <path class="fil1" d="M8120 3665c283,672 -518,537 -241,1099 119,241 241,134 -43,224 -68,21 -172,178 24,231 239,65 410,127 549,-83l3 -84c781,-90 406,-542 1031,-415 320,66 94,-337 717,-253 155,20 17,304 364,476 322,160 173,198 656,219 360,16 56,-528 578,-371 314,95 328,97 328,-149 439,-364 251,-463 944,-463 131,0 3,-352 39,-380 248,-200 501,104 699,-487 95,-286 881,-186 881,462 0,207 -40,482 231,482 290,-228 150,-284 309,-554 69,-117 151,-103 111,-279 -22,-97 599,-259 665,-289 -1675,-1873 -4109,-3051 -6819,-3051 -2854,0 -5404,1308 -7081,3357 285,51 420,-68 524,-25 79,451 -875,1271 -615,1265 168,-4 278,60 254,251 -27,219 -167,326 129,602 337,315 -148,655 893,765 430,45 511,-111 856,-132 128,-8 694,-128 787,-226 307,-323 236,-205 442,-599 106,-205 864,-261 1041,-545 246,-396 48,-293 173,-519 94,-170 330,-203 463,-19 176,244 755,86 441,-601 -124,-272 605,-54 667,91z"/>
    <path class="fil2" d="M17201 7150c92,24 71,-55 181,150 79,148 131,158 276,197 70,19 67,196 217,180 104,-12 118,-136 256,-79 4,1 19,-34 25,-34 -299,-1716 -1077,-3268 -2191,-4513 -66,30 -687,192 -665,289 40,176 -42,162 -111,279 -159,270 -19,326 -309,554 -271,0 -231,-275 -231,-482 0,-648 -786,-748 -881,-462 -198,591 -451,287 -699,487 -36,28 92,380 -39,380 -693,0 -505,99 -944,463 0,246 -14,244 -328,149 -522,-157 -218,387 -578,371 -483,-21 -334,-59 -656,-219 -347,-172 -209,-456 -364,-476 -623,-84 -397,319 -717,253 -625,-127 -250,325 -1031,415l-3 84c-139,210 -310,148 -549,83 -196,-53 -92,-210 -24,-231 284,-90 162,17 43,-224 -277,-562 524,-427 241,-1099 -62,-145 -791,-363 -667,-91 314,687 -265,845 -441,601 -133,-184 -369,-151 -463,19 -125,226 73,123 -173,519 -177,284 -935,340 -1041,545 -206,394 -135,276 -442,599 -93,98 -659,218 -787,226 -345,21 -426,177 -856,132 -1041,-110 -556,-450 -893,-765 -296,-276 -156,-383 -129,-602 24,-191 -86,-255 -254,-251 -260,6 694,-814 615,-1265 -104,-43 -239,76 -524,25 -826,1009 -1440,2197 -1776,3498 717,-276 411,-98 396,416 -6,186 231,-28 311,-53 210,-65 108,-439 254,-713 15,-27 127,-291 202,-156 11,20 20,220 175,410 418,511 476,672 1199,672 468,0 260,-59 634,187 160,62 630,106 795,5 298,-180 597,42 714,-192 105,-212 606,-3 655,-160 88,-283 152,-110 225,-632 22,-165 290,-449 290,-167 0,749 22,488 715,605 96,16 -7,-29 71,-138 23,-33 86,-246 -13,-318 -125,-91 -174,-130 -117,-294 765,-197 634,411 655,906 7,174 -468,296 -140,757 71,99 -163,228 -501,19 -55,-34 -117,227 23,310 219,129 238,962 19,1085 -128,72 -7,752 -370,494 -12,-9 -340,-44 -281,126 192,67 132,73 132,370 0,163 -322,560 -328,597 201,13 229,307 680,-14 4,-3 245,-71 85,66 -121,103 372,114 508,186 89,48 246,-79 265,-244 17,-143 54,-728 148,-743 385,-74 508,214 531,-369 0,-3 -117,-499 -315,-236 -44,59 -302,344 -302,140 0,-264 -308,198 -308,-212 0,-1092 97,-440 342,-959 192,-406 156,-203 254,-681 80,-393 330,-402 623,-666 42,-38 24,1 45,-32l-16 -16c441,-142 286,-412 1159,-267 172,28 817,330 662,578 -326,525 -446,-101 -429,347 4,81 -209,299 -77,289 303,-24 96,630 481,696 192,32 630,65 674,-196 37,-219 60,-110 60,-423 0,-628 275,-408 801,-655 142,-67 356,-154 509,-154 116,-26 83,80 87,168 1,29 -48,191 -116,188 -36,-1 -192,37 -77,77 31,11 100,112 83,150 -21,51 59,111 120,76 81,47 64,-1 183,97 34,28 130,67 179,31 70,-51 148,-57 236,-148 132,-135 231,-53 231,-317 95,-183 130,-221 70,-447 -11,-43 -80,-255 -129,-261 -37,-4 -48,-143 -29,-198 59,-173 71,-250 -29,-401 -63,-94 -126,-257 -46,-355 140,-171 85,-119 143,-347 26,0 201,-6 212,5 66,-2 142,97 140,158 -3,90 83,92 129,142 27,29 460,-38 453,-95 4,-90 10,-96 90,-154 40,-29 172,-79 206,-26 106,167 35,82 89,240 60,179 185,155 328,232l47 26c188,15 160,68 169,-190 3,-95 -139,-401 67,-410 120,-5 281,348 455,-206 21,-69 85,-57 125,2 103,152 234,186 216,427 -11,134 -338,21 -368,118 -13,41 -44,121 9,139 261,88 209,46 270,324 28,125 136,58 136,173l0 44c118,80 46,318 261,318 53,0 151,-158 163,-223 48,-254 51,-201 294,-201 50,0 70,-171 164,-86 89,79 230,295 227,419 -2,92 10,152 29,235z"/>
    <path class="fil3" d="M8221 9873c-23,583 -146,295 -531,369 -94,15 -131,600 -148,743 -19,165 -176,292 -265,244 -136,-72 -629,-83 -508,-186 160,-137 -81,-69 -85,-66 -451,321 -479,27 -680,14 6,-37 328,-434 328,-597 0,-297 60,-303 -132,-370 -59,-170 269,-135 281,-126 363,258 242,-422 370,-494 219,-123 200,-956 -19,-1085 -140,-83 -78,-344 -23,-310 338,209 572,80 501,-19 -328,-461 147,-583 140,-757 -21,-495 110,-1103 -655,-906 -57,164 -8,203 117,294 99,72 36,285 13,318 -78,109 25,154 -71,138 -693,-117 -715,144 -715,-605 0,-282 -268,2 -290,167 -73,522 -137,349 -225,632 -49,157 -550,-52 -655,160 -117,234 -416,12 -714,192 -165,101 -635,57 -795,-5 -374,-246 -166,-187 -634,-187 -723,0 -781,-161 -1199,-672 -155,-190 -164,-390 -175,-410 -75,-135 -187,129 -202,156 -146,274 -44,648 -254,713 -80,25 -317,239 -311,53 15,-514 321,-692 -396,-416 -188,732 -289,1500 -289,2291 0,373 22,740 66,1101 28,-51 294,283 250,380 -56,125 -39,350 111,387 203,49 214,-20 274,214 18,72 218,-8 185,-95 -14,-36 -33,-244 100,-1 79,143 161,272 200,438 74,15 84,67 264,59 1,0 248,66 289,71 20,2 95,226 114,79 9,-71 141,158 221,186 17,6 85,38 104,46 288,40 266,123 474,300 79,66 181,218 324,282 287,129 191,155 572,270 206,62 218,153 519,188 220,25 169,290 527,268 30,-2 123,-25 128,-59 233,60 183,9 434,112 254,103 302,139 568,73 98,-24 160,-327 439,-278 22,3 318,334 416,391 163,95 198,294 452,145 192,-114 549,2 671,-76 235,-149 349,110 559,-196 118,-172 1113,-38 1200,72 8,10 20,19 32,23 219,-157 -28,-192 489,-208 231,-7 174,346 895,77 416,-155 178,-100 443,-308 145,-114 274,143 548,138 124,-2 248,46 320,8 150,-80 516,108 518,108 269,-21 321,187 444,-150 55,-149 117,-69 214,-209 29,-42 142,-37 200,24 37,39 239,112 231,-93 -4,-106 735,95 763,93 467,-187 450,-787 952,-787 253,0 211,20 390,-222 124,-168 250,-238 462,-151 47,19 101,-32 210,-32 182,0 291,-291 407,-400 113,-106 -108,-317 168,-317 482,0 244,194 464,299 39,18 227,-72 240,-137 62,-303 173,-231 246,-224 128,-609 196,-1241 196,-1889 0,-539 -47,-1068 -137,-1582 -6,0 -21,35 -25,34 -138,-57 -152,67 -256,79 -150,16 -147,-161 -217,-180 -145,-39 -197,-49 -276,-197 -110,-205 -89,-126 -181,-150 -19,-83 -31,-143 -29,-235 3,-124 -138,-340 -227,-419 -94,-85 -114,86 -164,86 -243,0 -246,-53 -294,201 -12,65 -110,223 -163,223 -215,0 -143,-238 -261,-318l0 -44c0,-115 -108,-48 -136,-173 -61,-278 -9,-236 -270,-324 -53,-18 -22,-98 -9,-139 30,-97 357,16 368,-118 18,-241 -113,-275 -216,-427 -40,-59 -104,-71 -125,-2 -174,554 -335,201 -455,206 -206,9 -64,315 -67,410 -9,258 19,205 -169,190l-47 -26c-143,-77 -268,-53 -328,-232 -54,-158 17,-73 -89,-240 -34,-53 -166,-3 -206,26 -80,58 -86,64 -90,154 7,57 -426,124 -453,95 -46,-50 -132,-52 -129,-142 2,-61 -74,-160 -140,-158 -11,-11 -186,-5 -212,-5 -58,228 -3,176 -143,347 -80,98 -17,261 46,355 100,151 88,228 29,401 -19,55 -8,194 29,198 49,6 118,218 129,261 60,226 25,264 -70,447 0,264 -99,182 -231,317 -88,91 -166,97 -236,148 -49,36 -145,-3 -179,-31 -119,-98 -102,-50 -183,-97 -61,35 -141,-25 -120,-76 17,-38 -52,-139 -83,-150 -115,-40 41,-78 77,-77 68,3 117,-159 116,-188 -4,-88 29,-194 -87,-168 -153,0 -367,87 -509,154 -526,247 -801,27 -801,655 0,313 -23,204 -60,423 -44,261 -482,228 -674,196 -385,-66 -178,-720 -481,-696 -132,10 81,-208 77,-289 -17,-448 103,178 429,-347 155,-248 -490,-550 -662,-578 -873,-145 -718,125 -1159,267l16 16c-21,33 -3,-6 -45,32 -293,264 -543,273 -623,666 -98,478 -62,275 -254,681 -245,519 -342,-133 -342,959 0,410 308,-52 308,212 0,204 258,-81 302,-140 198,-263 315,233 315,236z"/>
    <path class="fil4" d="M7702 13627c-122,78 -479,-38 -671,76 -254,149 -289,-50 -452,-145 -98,-57 -394,-388 -416,-391 -279,-49 -341,254 -439,278 -266,66 -314,30 -568,-73 -251,-103 -201,-52 -434,-112 -5,34 -98,57 -128,59 -358,22 -307,-243 -527,-268 -301,-35 -313,-126 -519,-188 -381,-115 -285,-141 -572,-270 -143,-64 -245,-216 -324,-282 -208,-177 -186,-260 -474,-300 -19,-8 -87,-40 -104,-46 -80,-28 -212,-257 -221,-186 -19,147 -94,-77 -114,-79 -41,-5 -288,-71 -289,-71 -180,8 -190,-44 -264,-59 -39,-166 -121,-295 -200,-438 -133,-243 -114,-35 -100,1 33,87 -167,167 -185,95 -60,-234 -71,-165 -274,-214 -150,-37 -167,-262 -111,-387 44,-97 -222,-431 -250,-380 543,4532 4401,8046 9080,8046 4404,0 8081,-3113 8951,-7258 -73,-7 -184,-79 -246,224 -13,65 -201,155 -240,137 -220,-105 18,-299 -464,-299 -276,0 -55,211 -168,317 -116,109 -225,400 -407,400 -109,0 -163,51 -210,32 -212,-87 -338,-17 -462,151 -179,242 -137,222 -390,222 -502,0 -485,600 -952,787 -28,2 -767,-199 -763,-93 8,205 -194,132 -231,93 -58,-61 -171,-66 -200,-24 -97,140 -159,60 -214,209 -123,337 -175,129 -444,150 -2,0 -368,-188 -518,-108 -72,38 -196,-10 -320,-8 -274,5 -403,-252 -548,-138 -265,208 -27,153 -443,308 -721,269 -664,-84 -895,-77 -517,16 -270,51 -489,208 -12,-4 -24,-13 -32,-23 -87,-110 -1082,-244 -1200,-72 -210,306 -324,47 -559,196z"/>
   </g>
   <path class="fil5" d="M18293 9146c0,-5051 -4095,-9146 -9147,-9146 3776,0 6836,4095 6836,9146 0,5052 -3060,9147 -6836,9147 5052,0 9147,-4095 9147,-9147z"/>
  </g>
 </g>
</svg>
