<?xml version="1.0" encoding="UTF-8"?>
<!DOCTYPE svg PUBLIC "-//W3C//DTD SVG 1.1//EN" "http://www.w3.org/Graphics/SVG/1.1/DTD/svg11.dtd">
<!-- Creator: CorelDRAW X8 -->
<svg xmlns="http://www.w3.org/2000/svg" xml:space="preserve" width="210mm" height="297mm" version="1.1" style="shape-rendering:geometricPrecision; text-rendering:geometricPrecision; image-rendering:optimizeQuality; fill-rule:evenodd; clip-rule:evenodd"
viewBox="0 0 21000 29700"
 xmlns:xlink="http://www.w3.org/1999/xlink">
 <defs>
  <style type="text/css">
   <![CDATA[
    .fil5 {fill:none}
    .fil2 {fill:#EAD5A2}
    .fil4 {fill:#F0D99E}
    .fil0 {fill:#FAE3AB}
    .fil1 {fill:#FCEAC1}
    .fil3 {fill:#2B2A29;fill-opacity:0.200000}
   ]]>
  </style>
 </defs>
 <g id="Ebene_x0020_1">
  <metadata id="CorelCorpID_0Corel-Layer"/>
  <g id="_514886984">
   <g>
    <path class="fil0" d="M15603 12347l-10207 -3c102,280 225,549 369,805l9470 0c144,-255 267,-524 368,-802z"/>
    <path class="fil1" d="M15590 8618l-10180 0c-203,548 -319,1138 -334,1754l10848 0c-15,-615 -131,-1205 -334,-1754z"/>
    <path class="fil0" d="M15310 7989l-9620 0c-106,202 -200,412 -280,629l10180 0c-80,-217 -174,-427 -280,-629z"/>
    <path class="fil2" d="M14870 7285l-8728 -16c-169,227 -320,467 -452,720l9620 0c-129,-247 -276,-482 -440,-704z"/>
    <path class="fil0" d="M14377 6706l-7755 0c-172,177 -333,365 -480,563l8728 16c-151,-205 -315,-398 -493,-579z"/>
    <path class="fil1" d="M10500 5075c-1520,0 -2893,625 -3878,1631l7755 0c-985,-1007 -2358,-1631 -3877,-1631z"/>
    <path class="fil0" d="M15924 10372l-10848 0c-1,42 -1,85 -1,128 0,332 30,658 87,974l10676 0c57,-316 87,-642 87,-974 0,-43 0,-85 -1,-128z"/>
    <path class="fil2" d="M15838 11474l-10676 0c54,299 133,590 234,870l10207 3c101,-281 180,-573 235,-873z"/>
    <path class="fil1" d="M15235 13149l-9470 0c228,407 507,782 829,1116l7812 0c322,-334 601,-709 829,-1116z"/>
    <path class="fil0" d="M14406 14265l-7812 0c289,300 613,567 964,794l5884 0c351,-227 675,-494 964,-794z"/>
    <path class="fil2" d="M13442 15059l-5884 0c848,548 1858,866 2942,866 1084,0 2094,-318 2942,-866z"/>
   </g>
   <path class="fil3" d="M14336 6668c1532,1532 1058,4491 -1060,6608 -2117,2118 -5076,2592 -6608,1060 2117,2118 5551,2118 7668,0 2118,-2117 2118,-5551 0,-7668z"/>
   <g>
    <path class="fil4" d="M5364 8747c-3470,1473 -5675,3261 -5328,4557 475,1772 5545,1954 11324,405 5779,-1548 10079,-4240 9604,-6013 -347,-1296 -3152,-1741 -6895,-1281 232,202 446,424 640,663 2347,-128 4014,266 4252,1155 384,1433 -3093,3610 -7766,4862 -4673,1252 -8772,1105 -9156,-328 -238,-889 1009,-2063 3104,-3126 49,-307 123,-606 221,-894z"/>
    <path class="fil0" d="M5118 9815c-1844,979 -2922,2040 -2704,2852 367,1369 4285,1510 8751,313 4465,-1197 7788,-3277 7421,-4647 -217,-811 -1682,-1191 -3768,-1117 159,209 303,430 431,661 1000,101 1661,394 1789,871 297,1108 -2390,2790 -6001,3757 -3611,968 -6779,854 -7075,-253 -128,-477 298,-1061 1114,-1649 -1,-34 -1,-69 -1,-103 0,-232 15,-461 43,-685z"/>
   </g>
  </g>
  <rect class="fil5" width="21000" height="21000"/>
 </g>
</svg>
