<?xml version="1.0" encoding="UTF-8"?>
<!DOCTYPE svg PUBLIC "-//W3C//DTD SVG 1.1//EN" "http://www.w3.org/Graphics/SVG/1.1/DTD/svg11.dtd">
<!-- Creator: CorelDRAW X8 -->
<svg xmlns="http://www.w3.org/2000/svg" xml:space="preserve" width="210mm" height="210mm" version="1.1" style="shape-rendering:geometricPrecision; text-rendering:geometricPrecision; image-rendering:optimizeQuality; fill-rule:evenodd; clip-rule:evenodd"
viewBox="0 0 18293 18293"
 xmlns:xlink="http://www.w3.org/1999/xlink">
 <defs>
  <style type="text/css">
   <![CDATA[
    .fil0 {fill:#99736A}
    .fil1 {fill:#A67F78}
    .fil2 {fill:#C9A9A2}
    .fil3 {fill:#DEC8C3}
    .fil4 {fill:#E3E2E0}
    .fil5 {fill:#2B2A29;fill-opacity:0.200000}
   ]]>
  </style>
 </defs>
 <g id="Ebene_x0020_1">
  <metadata id="CorelCorpID_0Corel-Layer"/>
  <g id="_610481576">
   <path class="fil0" d="M9146 18293c3707,0 6899,-2206 8336,-5376 -782,27 -1610,129 -2396,-7 -1344,-232 -2022,307 -3334,307 -864,0 -4351,260 -4753,136 -697,-216 -3201,-323 -3363,-397 -771,-354 -3017,-973 -3271,-1244 1109,3802 4621,6581 8781,6581z"/>
   <path class="fil1" d="M15086 12910c786,136 1614,34 2396,7 520,-1150 811,-2426 811,-3771 0,-583 -55,-1154 -159,-1707 -278,48 -1597,219 -1790,156 -1006,-331 -2247,477 -3028,459 -1469,-33 -2231,248 -3578,248 -526,0 -2657,-270 -3028,-384 -696,-213 -3152,-225 -3508,-427 -1413,-800 -1427,-304 -2910,-646 -191,735 -292,1506 -292,2301 0,891 127,1752 365,2566 254,271 2500,890 3271,1244 162,74 2666,181 3363,397 402,124 3889,-136 4753,-136 1312,0 1990,-539 3334,-307z"/>
   <path class="fil2" d="M13316 8054c781,18 2022,-790 3028,-459 193,63 1512,-108 1790,-156 -337,-1781 -1189,-3379 -2397,-4634 -52,40 -664,219 -720,248 -2048,1068 -2427,-96 -3141,199 -802,331 -2614,170 -2833,335 -687,516 -2913,-291 -3772,-352 -1602,-115 -1110,186 -2567,-581 -1147,1138 -1994,2578 -2412,4191 1483,342 1497,-154 2910,646 356,202 2812,214 3508,427 371,114 2502,384 3028,384 1347,0 2109,-281 3578,-248z"/>
   <path class="fil3" d="M11876 3252c714,-295 1093,869 3141,-199 56,-29 668,-208 720,-248 -1664,-1729 -4002,-2805 -6591,-2805 -2513,0 -4789,1014 -6442,2654 1457,767 965,466 2567,581 859,61 3085,868 3772,352 219,-165 2031,-4 2833,-335zm-3876 -1150c-895,-183 -2839,-446 -542,-948 99,-21 81,-104 199,-99 1523,65 891,1158 343,1047z"/>
   <path class="fil4" d="M8000 2102c548,111 1180,-982 -343,-1047 -118,-5 -100,78 -199,99 -2297,502 -353,765 542,948z"/>
   <path class="fil5" d="M18293 9146c0,-5051 -4095,-9146 -9147,-9146 3776,0 6836,4095 6836,9146 0,5052 -3060,9147 -6836,9147 5052,0 9147,-4095 9147,-9147z"/>
  </g>
 </g>
</svg>
